<?xml version="1.0" encoding="utf-8"?>
<!-- Generator: Adobe Illustrator 27.1.0, SVG Export Plug-In . SVG Version: 6.00 Build 0)  -->
<svg version="1.1" id="Layer_1" xmlns="http://www.w3.org/2000/svg" xmlns:xlink="http://www.w3.org/1999/xlink" x="0px" y="0px"
	 viewBox="0 0 529 225" style="enable-background:new 0 0 529 225;" xml:space="preserve">
<style type="text/css">
	.st0{fill:url(#SVGID_1_);}
	.st1{opacity:0.28;}
	.st2{fill:#FFFFFF;}
	.st3{filter:url(#Adobe_OpacityMaskFilter);}
	.st4{filter:url(#Adobe_OpacityMaskFilter_00000111177607986917348680000005294969779291586953_);}
	
		.st5{mask:url(#SVGID_00000070104958126136723970000014164548511306220977_);fill:url(#SVGID_00000080177650976209254160000001514760866073826486_);}
	.st6{opacity:0.84;fill:url(#SVGID_00000128449662917241607600000004694430099969601433_);}
	.st7{fill:url(#SVGID_00000084532422002406870840000018055651975745384849_);}
	.st8{fill:#F9FBEC;}
	.st9{opacity:0.3;fill:#F8EDD4;}
	.st10{fill:#F8F0DA;}
	.st11{fill:#F8EDD4;}
	.st12{fill:#CAC524;}
	.st13{fill:#EFE02A;}
	.st14{fill:#AD9F25;}
	.st15{opacity:0.86;}
	.st16{fill:#F9EBBA;}
	.st17{fill:#A1A71E;}
	.st18{fill:#959026;}
	.st19{fill:#827D21;}
	.st20{opacity:0.74;fill:#F9ED2C;}
	.st21{opacity:0.88;}
	.st22{opacity:0.75;fill:#F9E3B2;}
	.st23{opacity:0.64;}
	.st24{fill:#C7D22F;}
	.st25{fill:#9D8C25;}
	.st26{opacity:0.83;}
	.st27{fill:#E7DF2B;}
	.st28{fill:#BCA864;}
	.st29{fill:#AA9C5F;}
	.st30{opacity:0.92;}
	.st31{fill:#D1D1C3;}
</style>
<g>
	<linearGradient id="SVGID_1_" gradientUnits="userSpaceOnUse" x1="264.5" y1="225" x2="264.5" y2="0">
		<stop  offset="0.5091" style="stop-color:#F4E3EC"/>
		<stop  offset="0.5984" style="stop-color:#F4E3E7"/>
		<stop  offset="0.7038" style="stop-color:#F5E3D9"/>
		<stop  offset="0.8173" style="stop-color:#F6E2C1"/>
		<stop  offset="0.9357" style="stop-color:#F7E1A0"/>
		<stop  offset="1" style="stop-color:#F8E18B"/>
	</linearGradient>
	<rect class="st0" width="529" height="225"/>
	<g class="st1">
		<path class="st2" d="M529,0v24.58c-18.72,3.17-39.41,2.89-43.08,14.42c-2,7,5,11,0,19c-0.21,0.26-0.42,0.52-0.64,0.77
			c-7.04,8.01-21.55,9.38-29.53,16.45c-0.01,0-0.01,0.01-0.01,0.01c-0.02,0.02-0.04,0.04-0.07,0.06c-0.26,0.23-0.51,0.47-0.75,0.71
			c-1.26,1.44-2.06,2.74-2.63,3.95c-2.6,5.52-0.24,8.95-13.37,13.05c-3.2,0.91-6.4,1.57-9.59,2.04c-4.46,0.67-8.9,0.99-13.29,1.18
			c-0.05,0-0.11,0.01-0.16,0.01c-6.13,0.28-12.14,0.32-17.96,0.77c-31,1-80,12-100,34h8c-6.17,3.56-12.63,6.67-19.23,9.56
			c-0.34,0.15-0.69,0.3-1.04,0.45c-0.39,0.17-0.77,0.33-1.16,0.5h-0.01c-0.75,0.32-1.49,0.64-2.24,0.95v0.01
			c-1.33,0.55-2.66,1.1-4,1.65h-0.01c-1.25,0.51-2.5,1.02-3.75,1.52h-0.01c-0.25,0.1-0.49,0.2-0.74,0.3h-0.01
			c-2.9,1.16-5.8,2.3-8.71,3.45c-11.18,4.41-22.38,8.89-32.98,14.45c-0.56,0.29-1.12,0.59-1.68,0.89c-0.27,0.14-0.55,0.29-0.81,0.44
			c-2.24,1.22-4.45,2.49-6.62,3.83c-0.07,0.04-0.14,0.09-0.21,0.13c-0.01,0.01-0.01,0.01-0.02,0.01c-0.04,0.03-0.08,0.05-0.12,0.08
			c-3.39,2.11-6.77,4.2-10.16,6.25c-1.98,1.21-3.97,2.4-5.95,3.58c-0.35,0.21-0.7,0.42-1.05,0.62l-0.01,0.01
			c-0.07,0.04-0.14,0.08-0.21,0.12c-0.13,0.08-0.25,0.16-0.38,0.23c-0.28,0.17-0.56,0.33-0.84,0.5c-2.08,1.23-4.17,2.45-6.25,3.66
			c0,0.01-0.01,0.01-0.01,0.01c-0.55,0.32-1.1,0.63-1.64,0.96c-1.44,0.82-2.87,1.65-4.31,2.47c-0.57,0.32-1.13,0.64-1.7,0.96
			c-0.28,0.16-0.56,0.32-0.84,0.47v0.01c-0.35,0.2-0.7,0.39-1.06,0.59c-0.16,0.1-0.32,0.19-0.49,0.28
			c-0.49,0.28-0.98,0.55-1.47,0.83c-0.75,0.42-1.51,0.84-2.27,1.26c-0.55,0.31-1.09,0.61-1.64,0.91c-0.58,0.32-1.16,0.64-1.74,0.96
			c-3.46,1.91-6.92,3.78-10.39,5.62c-2.38,1.27-4.76,2.53-7.15,3.77c-2.74,1.42-5.48,2.82-8.23,4.22c-2.27,1.14-4.54,2.27-6.81,3.39
			c-0.01,0.01-0.02,0.01-0.03,0.01c-9.91,4.9-19.93,9.59-30.09,14.09H0v-36.77c25.34-5.47,50.8-10.52,76.92-16.23
			c4.57-0.87,9.19-1.79,13.82-2.78c16.66-3.54,33.53-7.96,49.18-14.22c10-4,20-13,29-16c13.96-3.72,31.37-1.38,47.42-3.45
			c1.2-0.16,2.4-0.34,3.58-0.55c5.42-0.96,9.01-1.61,11.52-2.51c0.59-0.21,1.12-0.43,1.6-0.68c0.58-0.3,1.08-0.62,1.53-0.99
			c2.55-2.1,3.29-5.6,5.35-12.82c1.28-4.69,2.38-8.2,3.56-10.84c0.01-0.02,0.01-0.04,0.03-0.06c1.3-2.92,2.72-4.76,4.59-5.95
			c3.72-2.38,9.26-2.18,19.45-2.79h0.01c0.01,0.01,0.02,0.01,0.03,0c0.01,0.01,0.01,0.01,0.02,0c1.64-0.09,3.41-0.21,5.31-0.36
			c13-1,26-4,39-7c16-3,17-9,28-15c11.15-5.84,24.28-4.63,37.59-3.86h0.03c1.1,0.06,2.2,0.12,3.3,0.18
			c10.65,0.51,21.32,0.35,31.08-4.32c6.29-3.46,10.3-7.81,12.22-12.46c4.21-10.13-1.51-21.68-15.22-28.54c-11-5-53-11-28,2
			c5,3,11-3,14,3c5,8-5.09,10.82-11,14c-25.47,13.71-91.22,0.88-74.18-46H529z"/>
		<path class="st2" d="M220.25,18.67c0,7.33-8.66,8.66-14.66,10c-10,3.33-12.67,1.33-14.67,8c-2,4.66,2,6.66-2.67,12.66
			c-2.66,3.34-10.66,12.67-14,14.67c-12.66,9.33-38,8-52.66,11.33c-8,2-23.34,2.67-28,10.67c2,0.67,4.66,4.67,6,5.33
			c-22.67,12.67-56,11.34-80.67,18c-6.47,1.99-12.74,4.19-18.92,6.44V94.69c5.42-1.09,10.83-2.28,16.25-3.36
			c9.34-2,26.67-3.33,34-11.33C38.92,69.33,80.92,65.33,86.92,63.33c11.33-4,34.67-6,42-12.66c-6.67-8-19.33-6.67-26-14
			c7.33-6.67,31.33-6.67,22.67-20C121.97,10.98,107.92,4.49,98.38,0h122.95c-4.72,2.02-8.37,4.3-9.08,6.67
			C210.25,12.67,220.25,12,220.25,18.67z"/>
	</g>
	<g>
		<defs>
			<filter id="Adobe_OpacityMaskFilter" filterUnits="userSpaceOnUse" x="200.69" y="4" width="137.02" height="137.02">
				<feColorMatrix  type="matrix" values="1 0 0 0 0  0 1 0 0 0  0 0 1 0 0  0 0 0 1 0"/>
			</filter>
		</defs>
		
			<mask maskUnits="userSpaceOnUse" x="200.69" y="4" width="137.02" height="137.02" id="SVGID_00000005982603230749207670000000914395764428480188_">
			<g class="st3">
				<defs>
					
						<filter id="Adobe_OpacityMaskFilter_00000098180011151803232610000007240151841467302331_" filterUnits="userSpaceOnUse" x="200.69" y="4" width="137.02" height="137.02">
						<feFlood  style="flood-color:white;flood-opacity:1" result="back"/>
						<feBlend  in="SourceGraphic" in2="back" mode="normal"/>
					</filter>
				</defs>
				
					<mask maskUnits="userSpaceOnUse" x="200.69" y="4" width="137.02" height="137.02" id="SVGID_00000005982603230749207670000000914395764428480188_">
					<g style="filter:url(#Adobe_OpacityMaskFilter_00000098180011151803232610000007240151841467302331_);">
					</g>
				</mask>
				
					<radialGradient id="SVGID_00000155106218997403428880000003310525958472671159_" cx="269.2002" cy="72.5102" r="68.5095" gradientUnits="userSpaceOnUse">
					<stop  offset="0" style="stop-color:#FFFFFF"/>
					<stop  offset="0.105" style="stop-color:#CECECE"/>
					<stop  offset="0.236" style="stop-color:#989898"/>
					<stop  offset="0.3684" style="stop-color:#6A6A6A"/>
					<stop  offset="0.4996" style="stop-color:#434343"/>
					<stop  offset="0.6292" style="stop-color:#262626"/>
					<stop  offset="0.7569" style="stop-color:#111111"/>
					<stop  offset="0.8815" style="stop-color:#040404"/>
					<stop  offset="1" style="stop-color:#000000"/>
				</radialGradient>
				
					<path style="mask:url(#SVGID_00000005982603230749207670000000914395764428480188_);fill:url(#SVGID_00000155106218997403428880000003310525958472671159_);" d="
					M337.71,72.51c0,37.84-30.67,68.51-68.51,68.51c-37.84,0-68.51-30.67-68.51-68.51C200.69,34.67,231.36,4,269.2,4
					C307.04,4,337.71,34.67,337.71,72.51z"/>
			</g>
		</mask>
		
			<radialGradient id="SVGID_00000050636025430339948310000016185437834238668186_" cx="269.2002" cy="72.5102" r="68.5095" gradientUnits="userSpaceOnUse">
			<stop  offset="0" style="stop-color:#F6F9D5"/>
			<stop  offset="0.5201" style="stop-color:#FBFCED"/>
			<stop  offset="1" style="stop-color:#FFFFFF"/>
		</radialGradient>
		<path style="opacity:0.84;fill:url(#SVGID_00000050636025430339948310000016185437834238668186_);" d="M337.71,72.51
			c0,37.84-30.67,68.51-68.51,68.51c-37.84,0-68.51-30.67-68.51-68.51C200.69,34.67,231.36,4,269.2,4
			C307.04,4,337.71,34.67,337.71,72.51z"/>
		<path class="st2" d="M281.96,72.51c0,7.05-5.71,12.76-12.76,12.76c-7.05,0-12.76-5.71-12.76-12.76c0-7.05,5.71-12.76,12.76-12.76
			C276.25,59.75,281.96,65.46,281.96,72.51z"/>
	</g>
	<g>
		
			<linearGradient id="SVGID_00000069369931515499801250000008660914001639575729_" gradientUnits="userSpaceOnUse" x1="0" y1="131.0567" x2="529" y2="131.0567">
			<stop  offset="0" style="stop-color:#C0A1BA"/>
			<stop  offset="0.4909" style="stop-color:#F3DEB8"/>
			<stop  offset="1" style="stop-color:#C0AACD"/>
		</linearGradient>
		<path style="fill:url(#SVGID_00000069369931515499801250000008660914001639575729_);" d="M529,44.26V225H0V37.81
			c14.73,1.76,32.36,1.63,43.61,1.04c4.7-0.44,9.41-2.64,14.7-1.32c4.11,0.88,8.23,5.29,14.1,6.18c3.42,0.43,6.84-0.81,10.79-0.88
			c0.04,0,0.07-0.01,0.11-0.01h0.23c0.27-0.03,0.54-0.05,0.8-0.07c0.04-0.01,0.07-0.01,0.11-0.01c0.46-0.04,0.91-0.08,1.34-0.11
			c0.76-0.06,1.47-0.1,2.15-0.11c0.37-0.01,0.73-0.01,1.08-0.01c0.69,0,1.34,0.02,1.94,0.06c0.52,0.04,1.02,0.09,1.48,0.16
			c0.1,0.01,0.2,0.03,0.3,0.04c0.26,0.04,0.51,0.08,0.75,0.13c0.26,0.05,0.5,0.11,0.74,0.17c0.22,0.05,0.44,0.11,0.64,0.18
			c0.02,0.01,0.03,0.01,0.05,0.02c0.46,0.15,0.89,0.32,1.3,0.5c0.31,0.15,0.61,0.31,0.9,0.49c0.17,0.1,0.34,0.21,0.5,0.32
			c0.16,0.11,0.31,0.22,0.46,0.34c0.06,0.03,0.11,0.07,0.16,0.11c0.11,0.09,0.22,0.18,0.32,0.28c0.12,0.11,0.25,0.21,0.37,0.33
			c0.12,0.11,0.24,0.22,0.35,0.34c0.24,0.24,0.47,0.5,0.69,0.76c0.15,0.18,0.3,0.36,0.44,0.55c1.01,1.28,1.97,2.8,3.14,4.52
			c0.21,0.31,0.43,0.62,0.66,0.95c0.83,1.17,1.77,2.43,2.9,3.76c0.43,0.52,0.87,1.02,1.33,1.53c0.04,0.05,0.08,0.09,0.13,0.14
			c0.19,0.22,0.39,0.43,0.59,0.65c3.83-0.4,6.57-2.31,11.33-2.56c1.76,0,9.86-4.08,11.7-4.13c0.46,0.05,0.9,0.11,1.34,0.18
			c0.43,0.06,0.85,0.13,1.26,0.19c0.92,0.16,1.77,0.33,2.58,0.52c0.36,0.09,0.7,0.17,1.04,0.26c0.42,0.11,0.83,0.22,1.23,0.34
			c0.32,0.09,0.63,0.18,0.93,0.29c1.06,0.35,2.02,0.72,2.93,1.11c0.26,0.11,0.52,0.22,0.77,0.33c0.5,0.23,0.99,0.45,1.47,0.68
			c1.64,0.77,3.18,1.57,4.89,2.33c0.26,0.11,0.53,0.23,0.8,0.34c0.24,0.1,0.49,0.2,0.74,0.3c0.19,0.07,0.38,0.14,0.57,0.22
			c0.57,0.22,1.17,0.42,1.81,0.61c0.57,0.17,1.16,0.34,1.78,0.5c0.31,0.07,0.63,0.15,0.95,0.23c0.37,0.08,0.75,0.16,1.14,0.24
			c0.39,0.08,0.79,0.15,1.2,0.22c0.28,0.04,0.56,0.09,0.85,0.13c0.09,0.02,0.17,0.03,0.26,0.04c0.32,0.05,0.65,0.1,0.99,0.14
			c0.22,0.03,0.44,0.05,0.65,0.07c0.2,0.02,0.4,0.04,0.59,0.06c0.44,0.04,0.83,0.07,1.19,0.09c0.34,0.03,0.65,0.05,0.93,0.06
			c0.26,0.01,0.49,0.02,0.7,0.03c0.21,0,0.4,0.01,0.57,0.02c0.08,0,0.16,0,0.23,0.01c0.47,0.02,0.84,0.05,1.17,0.11
			c1.2,0.21,1.97,0.87,4.88,3.28c0.09,0.08,0.19,0.16,0.29,0.24c9.41,7.06,17.64,13.24,29.98,18.09c0.98,0.4,1.97,0.78,2.95,1.17
			c1.98,0.76,3.97,1.49,5.97,2.19c1,0.35,2,0.69,3.01,1.03c1.01,0.33,2.02,0.66,3.03,0.98c2.03,0.63,4.06,1.24,6.11,1.82
			c1.03,0.29,2.05,0.57,3.08,0.84c1.18,0.31,2.36,0.62,3.54,0.91c1.05,0.26,2.1,0.51,3.16,0.76c0.1,0.03,0.2,0.05,0.29,0.07
			c0.96,0.22,1.92,0.43,2.88,0.64c1.19,0.26,2.38,0.51,3.58,0.75c1.2,0.24,2.4,0.47,3.6,0.69c0.81,0.15,1.61,0.29,2.41,0.43
			c1.07,0.18,2.15,0.36,3.22,0.53c1.08,0.17,2.15,0.33,3.23,0.49c0.59,0.09,1.18,0.17,1.78,0.25c0.6,0.08,1.2,0.16,1.79,0.24
			c1.48,0.19,2.96,0.37,4.45,0.53c0.6,0.07,1.2,0.13,1.8,0.19c0.42,0.05,0.85,0.09,1.29,0.13c0.82,0.09,1.65,0.16,2.48,0.23
			c0.33,0.03,0.66,0.06,1,0.08h0.01c0.01,0.01,0.02,0.01,0.03,0c0.01,0.01,0.01,0.01,0.02,0c0.87,0.07,1.75,0.14,2.62,0.21
			c0.88,0.06,1.75,0.12,2.63,0.17c0.87,0.06,1.75,0.11,2.62,0.15c1.27,0.07,2.54,0.13,3.81,0.17c0.63,0.02,1.27,0.04,1.91,0.06
			c1.39,0.05,2.79,0.07,4.18,0.09c0.37,0.01,0.74,0.01,1.11,0.01c2.1,0.02,4.21,0.01,6.31-0.03c0.6,0,1.19-0.01,1.79-0.03
			c1.86-0.04,3.71-0.1,5.56-0.18h0.04c0,0,0.01,0,0.01-0.01c13.33-3.53,22.02-12.62,33.77-14.39c0.7-0.06,1.38-0.1,2.03-0.13
			c5.04-0.22,9.27,0.39,15.05-1.33c0.31-0.09,0.63-0.19,0.95-0.3c8.61-2.94,16.45-5.88,24.29-10c0.43-0.22,0.84-0.45,1.25-0.68
			c4.59-2.54,8.18-5.24,12.53-7.29c0.31-0.15,0.63-0.29,0.95-0.43c0.32-0.14,0.64-0.27,0.97-0.4c0.38-0.15,0.76-0.29,1.15-0.43
			c0.39-0.14,0.79-0.27,1.2-0.4c0.24-0.08,0.49-0.15,0.74-0.22c0.25-0.07,0.5-0.14,0.75-0.21c0.55-0.15,1.12-0.28,1.7-0.39
			c0.23-0.05,0.46-0.1,0.7-0.14c0.13-0.03,0.25-0.06,0.39-0.08c0.11-0.02,0.23-0.03,0.35-0.04c0.01,0,0.01,0,0.02-0.01
			c0.44-0.05,0.91-0.05,1.4-0.02c0.24,0.01,0.48,0.02,0.73,0.04c0.25,0.01,0.5,0.03,0.75,0.06c0.25,0.02,0.5,0.04,0.76,0.06
			c0.25,0.03,0.5,0.05,0.75,0.07c0.3,0.03,0.6,0.05,0.89,0.06c0.29,0.02,0.58,0.03,0.86,0.03c0.46,0,0.9-0.02,1.3-0.09
			c0.15-0.02,0.29-0.05,0.43-0.08c3.91-1.17,7.05-5.29,10.18-5.88c0.25-0.07,0.5-0.14,0.76-0.21c0.26-0.06,0.52-0.12,0.78-0.17
			c0.22-0.05,0.45-0.08,0.67-0.12c0.19-0.03,0.38-0.06,0.57-0.08c1.38-0.19,2.83-0.25,4.32-0.23c6.63,0.1,14.1,1.83,20.34,1.4
			c3.91-0.59,14.38-5.73,18.3-5.73c4.1-0.44,14.98,4.7,22.5,7.56c1.46,0.56,2.79,1.04,3.92,1.36c0.01,0.01,0.01,0.01,0.02,0.01
			c2.94-1.81,5.95-3.48,8.54-4.08c1.97-0.29,4.71,0.59,6.67,0.29c4.3-0.58,6.65-3.23,9.79-5.29C517.17,49.12,524.25,44.34,529,44.26
			z"/>
		<g>
			<path class="st8" d="M109.12,58.84c-6.9,0.32-8.83-16.83-24.67-16.09c16.08-1.47,14.53,4.23,22.61,13.75
				C107.71,57.28,108.39,58.06,109.12,58.84z"/>
			<path class="st8" d="M333.93,84.58c0.71-0.06,1.4-0.11,2.07-0.13c-11.75,1.76-22.56,13.75-35.89,17.28
				c-30.95,5.73-66.89-1.35-97.25-13.62c-12.34-4.85-20.4-11.67-29.8-18.73c-5.88-4.85-4.02-4.56-11.66-5.44
				c-14.11-1.77-14.52-10.02-29.21-11.79c14.69,1.76,15.42,7.44,29.53,9.2c7.64,0.88,5.29-0.88,11.17,3.97
				c9.4,7.06,17.63,13.23,29.98,18.09c30.36,12.27,64.08,17.02,97.29,15.57c0,0,0.01,0,0.01-0.01
				C313.49,95.44,322.18,86.35,333.93,84.58z"/>
			<path class="st8" d="M398.19,62.23c0.25-0.06,0.52-0.11,0.8-0.13c-0.01,0.01-0.01,0.01-0.02,0.01
				c-9.4,1.76-15.88,9.66-23.71,13.78c-7.84,4.11-14.11,7.17-24.24,7.23c0.32-0.1,0.62-0.19,0.94-0.3c8.62-2.94,16.46-5.88,24.3-10
				C384.08,68.7,388.79,64,398.19,62.23z"/>
			<path class="st8" d="M417,56.35c0.91-0.27,1.85-0.46,2.82-0.58c-4.34,2.28-9.83,6.98-12.82,7.88c-1.9,0.48-4.46-1.22-6.61-1.56
				c2.16,0.07,4.71,0.58,6.43,0.15C410.73,61.06,413.87,56.94,417,56.35z"/>
			<path class="st8" d="M83.54,42.82c-0.12,0-0.22,0-0.34,0.01c0.42-0.04,0.83-0.08,1.25-0.09C84.15,42.76,83.85,42.79,83.54,42.82z
				"/>
		</g>
		<path class="st9" d="M529,44.24v23.27c-9.59-1.27-18.41,5.92-29.06,6.27c-6.47,0.44-8.23-0.88-15.28,1.32
			c-5.88,1.76-11.22,3.72-15.87,6.62c-31.99,19.88-68.56,29.17-101.83,27.37c-0.01,0-0.01,0-0.02,0c-3.49-0.19-6.94-0.5-10.34-0.94
			c63.99-5.8,77.7-21.73,88.27-28.57c4.32-2.65,7.05-3.24,12.14-4.71c8.63-2.65,16.46-6.18,24.3-10c2.3-1.16,5.08-3.01,7.91-4.74
			c2.94-1.82,5.95-3.48,8.55-4.08c1.52-0.23,3.5,0.26,5.23,0.34c0.5,0.03,0.99,0.03,1.44-0.04c4.3-0.58,6.65-3.23,9.79-5.29
			C517.17,49.1,524.25,44.32,529,44.24z"/>
		<path class="st9" d="M221.58,118.38c-2.95,0.4-6.24,0.69-9.77,0.87c-14.34,0.81-32.46,0.12-46.95-1.07
			c-5.44-0.44-10.38-0.94-14.4-1.47c-0.01,0-0.02,0-0.02,0c-0.76-0.1-1.49-0.2-2.19-0.3c-6.7-0.91-13.41-1.81-20.13-2.76
			c-12.54-1.76-25.09-3.64-37.64-5.89c-0.34-0.05-0.67-0.11-1.01-0.18c-15.28-2.65-26.64-9.4-40.75-13.52
			c-10.58-3.24-17.63-3.24-29-2.36c-7.84,0.59-8.23-1.76-14.49-4.11C3.67,87.13,1.87,86.94,0,86.94V69.93
			c3.28-0.5,6.71-1.45,10.58-0.65c4.7,0.88,8.23,4.85,12.93,5.29c2.29,0,4.82-1.11,7.44-1.9c0.04-0.01,0.06-0.02,0.09-0.03
			c1.12-0.27,2.14-0.48,3.1-0.65c0.05,0,0.08-0.01,0.12-0.02c0.33-0.03,0.67-0.05,1-0.05c2.96-0.15,5.73,0.06,8.37,0.55
			c12.52,2.3,21.88,10.79,33.66,15.77C118.61,105.71,168.77,117.61,221.58,118.38z"/>
		<g>
			<path class="st10" d="M207.53,103.94c-14.53-0.68-27.25-2.83-38.44-5.96c-17.82-0.56-52.75-19.16-58.83-24.46
				c-1.25-1.09-2.35-3.02-0.29-3.46c1.41-0.3,6.5,1.74,10.17,3.3c-6.78-5.24-12.53-10.53-17.55-15.32
				c-6.91-6.56-12.45-12.17-17.48-15.34c15.45-1.27,14.02,4.4,22,13.82c0.66,0.79,1.34,1.56,2.05,2.34
				C128.47,80.08,167.4,99.25,207.53,103.94z"/>
			<path class="st8" d="M341.68,84.4c-5.7,1.03-12.28,4.31-17.47,7.5c-3.99,2.46-8.24,4.56-12.62,6.36c0,0,0,0-0.01,0
				c-26.33,10.79-57.64,10.46-68.5,8.83c28.42-0.05,37.95-2.33,57.11-8.09c0.01,0,0.01,0,0.02,0c0,0,0.01,0,0.01-0.01
				c13.33-3.53,22.02-12.63,33.77-14.39C336.74,84.35,339.2,84.43,341.68,84.4z"/>
			<path class="st11" d="M503.01,56.42c-8.07,1.4-33.11,19.1-39.5,20.34c-6.85,1.32-6.85-0.8-20.71,9.96
				c-28.68,22.3-79.15,23.64-96.54,22.28c72.9-4.93,87.5-22.19,98.62-29.38c4.31-2.65,7.05-3.24,12.14-4.71
				c8.63-2.65,16.46-6.18,24.3-10c2.3-1.16,5.08-3.01,7.91-4.74c2.94-1.82,5.95-3.48,8.55-4.08
				C499.3,55.85,501.28,56.34,503.01,56.42z"/>
			<path class="st11" d="M237.21,118.33c-29.92,3.79-103.46-3.12-141.35-18.48C55.07,83.3,70.29,86.83,58.54,82.64
				c-7.7-2.74-9.55-8.05-14.88-10.13c12.52,2.3,21.88,10.79,33.66,15.78C122.68,107.47,178.72,119.93,237.21,118.33z"/>
		</g>
	</g>
	<g>
		<path class="st12" d="M529,109.77V225H0v-55.78h227.45c0.06-0.03,0.13-0.05,0.19-0.08c0.01,0,0.01-0.01,0.02-0.01
			c3.17-1.34,6.35-2.66,9.53-3.96h0.01c0.18-0.08,0.37-0.15,0.55-0.23h0.01c0.28-0.11,0.55-0.23,0.83-0.34
			c0.62-0.26,1.24-0.51,1.87-0.76h0.01c2.58-1.05,5.17-2.08,7.76-3.1c4.16-1.65,8.33-3.25,12.51-4.83c2.3-0.86,4.6-1.72,6.91-2.57
			h0.01c0.84-0.31,1.67-0.61,2.52-0.92c0.64-0.23,1.28-0.47,1.92-0.69l0.01-0.01v-0.01c0.01,0,0.03-0.01,0.04-0.01h0.01
			c0.37-0.13,0.75-0.27,1.12-0.4c0.95-0.35,1.9-0.69,2.86-1.03c2.53-0.9,5.07-1.78,7.6-2.66c0.71-0.24,1.41-0.48,2.12-0.72h0.01
			v-0.01h0.01c0.76-0.25,1.53-0.51,2.3-0.78c0.01,0,0.01,0,0.02,0v-0.01c0.43-0.14,0.86-0.28,1.29-0.43
			c0.36-0.12,0.72-0.24,1.08-0.36h0.01c4.03-1.35,8.06-2.66,12.11-3.94c2.81-0.89,5.62-1.76,8.44-2.62
			c2.18-0.66,4.37-1.32,6.56-1.96c1.1-0.33,2.21-0.65,3.32-0.97c1.24-0.36,2.48-0.72,3.73-1.07c0.78-0.22,1.57-0.45,2.36-0.66
			c0.45-0.13,0.89-0.25,1.33-0.37l0.01-0.01c0.01,0,0.01-0.01,0.02-0.01c0.56-0.15,1.1-0.3,1.66-0.45c0.73-0.21,1.46-0.41,2.18-0.6
			c0.48-0.13,0.95-0.26,1.42-0.38c0.54-0.15,1.08-0.3,1.62-0.44c0.99-0.27,1.97-0.53,2.96-0.79c0.19-0.05,0.39-0.1,0.58-0.15
			c0.03-0.01,0.06-0.02,0.09-0.02c0.02,0,0.04-0.01,0.05-0.01c0.6-0.16,1.19-0.32,1.79-0.47c0.84-0.22,1.68-0.44,2.52-0.65
			c0.33-0.09,0.67-0.17,1-0.25c0.28-0.07,0.55-0.14,0.82-0.21c0.27-0.07,0.55-0.14,0.82-0.21c1.23-0.31,2.45-0.61,3.68-0.91
			c3.55-0.87,7.1-1.72,10.66-2.53c0.61-0.15,1.24-0.29,1.85-0.43c0.36-0.08,0.72-0.16,1.08-0.24l1.89-0.42
			c0.31-0.07,0.61-0.14,0.92-0.2c0.41-0.09,0.83-0.18,1.24-0.27c1.46-0.32,2.93-0.64,4.4-0.95c0.93-0.2,1.86-0.4,2.79-0.59
			c0.14-0.03,0.28-0.06,0.41-0.08c0.52-0.11,1.04-0.21,1.56-0.32c0.61-0.13,1.21-0.25,1.82-0.37c1.12-0.23,2.25-0.45,3.38-0.67
			c0.02,0,0.05-0.01,0.07-0.01c1.17-0.23,2.34-0.46,3.51-0.68c0.63-0.12,1.25-0.24,1.87-0.35c0.29-0.06,0.57-0.11,0.86-0.17
			c0.29-0.05,0.58-0.1,0.87-0.16c0.72-0.13,1.44-0.26,2.17-0.39c2.08-0.38,4.17-0.75,6.26-1.1c0.51-0.09,1.02-0.17,1.53-0.26
			c0.17-0.03,0.35-0.06,0.52-0.09c0.54-0.09,1.08-0.18,1.62-0.27c0.77-0.13,1.54-0.26,2.31-0.38h0.03c0,0,0,0,0.01,0
			c0.11-0.02,0.22-0.04,0.33-0.06c1.08-0.17,2.16-0.34,3.24-0.51c0.61-0.1,1.23-0.19,1.84-0.28c7.22-1.11,14.47-2.09,21.74-2.94
			c0.93-0.11,1.86-0.22,2.79-0.33c0.89-0.1,1.79-0.2,2.68-0.29c1.22-0.14,2.44-0.27,3.65-0.39c0.21-0.02,0.43-0.05,0.64-0.07
			c0.4-0.04,0.79-0.08,1.18-0.11l0.51-0.06c0.99-0.09,1.99-0.19,2.98-0.28c0.36-0.04,0.73-0.07,1.1-0.1
			c0.49-0.05,0.98-0.09,1.48-0.14c2.78-0.25,5.57-0.48,8.37-0.69c0.99-0.08,1.98-0.15,2.97-0.22c0.02-0.01,0.05-0.01,0.07-0.01
			c0.09-0.01,0.19-0.01,0.29-0.02c0.81-0.06,1.61-0.12,2.42-0.17c0.8-0.05,1.59-0.11,2.39-0.16c0.89-0.05,1.78-0.11,2.67-0.16
			c0.88-0.05,1.76-0.1,2.64-0.15c1.12-0.06,2.25-0.12,3.37-0.17c0.6-0.03,1.19-0.06,1.79-0.08c0.63-0.04,1.27-0.06,1.91-0.09
			c1.23-0.05,2.46-0.1,3.7-0.15c1.05-0.04,2.09-0.07,3.14-0.11c0.78-0.02,1.57-0.04,2.35-0.06c0.27-0.01,0.54-0.02,0.8-0.03
			c0.86-0.02,1.72-0.04,2.58-0.06c0.68-0.02,1.36-0.03,2.04-0.04c0.18,0,0.37,0,0.56-0.01c0.58-0.01,1.17-0.02,1.76-0.03
			c1.53-0.02,3.06-0.04,4.58-0.05c1.48-0.01,2.96-0.02,4.44-0.02c0.54,0,1.09,0,1.64,0.01c0.38,0.01,0.76,0.01,1.14,0.02
			c0.08-0.01,0.16-0.01,0.24,0c0.92-0.01,1.85,0,2.79,0.02c0.98,0.01,1.97,0.02,2.96,0.04c0,0,0.01-0.02,0.02,0
			c0.02-0.02,0.04-0.02,0.07,0c0.09-0.01,0.19-0.01,0.29,0h0.28c0.01,0,0.02,0,0.03,0.01c0.01-0.02,0.02-0.02,0.03,0l0.01-0.01
			c0.01,0,0.03,0,0.05,0.01c0.01-0.01,0.03-0.01,0.06,0c0.05-0.01,0.11-0.01,0.17,0c0,0,0.01-0.01,0.02,0c0.31,0,0.61,0,0.92,0.01
			c0.27,0.01,0.54,0.01,0.82,0.02c0-0.01,0.01-0.01,0.03,0h0.24l0.01,0.01c0.01-0.02,0.02-0.02,0.04,0c0,0,0-0.02,0.01,0
			c0.01-0.01,0.02-0.01,0.03,0c0,0,0-0.01,0.01,0c0.64,0.01,1.28,0.03,1.92,0.04c0.26,0.01,0.53,0.01,0.79,0.02
			c0.01-0.01,0.02-0.01,0.04,0c0.05-0.01,0.1-0.01,0.15,0c0.08-0.01,0.17,0,0.26,0.01c0.11-0.01,0.23-0.01,0.35,0.01
			c0.02-0.01,0.05-0.01,0.08,0c0.08-0.01,0.16-0.01,0.25,0.01c0.01-0.01,0.03-0.01,0.05,0c0.01-0.02,0.03-0.01,0.05,0
			c0-0.01,0.02,0,0.02,0c0.05-0.01,0.1-0.01,0.16,0c0.33,0,0.65,0.01,0.98,0.02c0.13,0,0.26,0.01,0.39,0.01
			c0.36,0.01,0.71,0.02,1.07,0.04c0.01-0.01,0.02-0.01,0.04,0c0.7,0.01,1.4,0.04,2.11,0.06C524.93,109.6,526.96,109.68,529,109.77z"
			/>
		<path class="st13" d="M529,109.77v15.68c-69.14-1.7-140.75,17.68-204.32,45.48c-0.1,0.04-0.2,0.08-0.29,0.13
			c-0.45,0.19-0.9,0.39-1.34,0.58c-6.61,2.91-13.13,5.92-19.55,8.99h-0.01c-0.48,0.23-0.96,0.47-1.44,0.7
			c-3.83,1.84-7.63,3.72-11.38,5.62c-0.61,0.3-1.21,0.6-1.8,0.91c-0.02,0.01-0.03,0.01-0.04,0.02c-0.59,0.3-1.17,0.59-1.75,0.89
			c-0.32,0.17-0.64,0.33-0.96,0.5c-0.45,0.22-0.89,0.45-1.33,0.68c-0.25,0.13-0.5,0.26-0.76,0.39c-0.24,0.13-0.49,0.26-0.74,0.39
			c-0.11,0.05-0.22,0.11-0.33,0.17c-0.81,0.42-1.61,0.84-2.42,1.27c-0.12,0.06-0.23,0.12-0.35,0.18c-0.5,0.26-0.99,0.53-1.49,0.79
			c-1.72,0.91-3.42,1.82-5.12,2.74c-0.7,0.38-1.4,0.76-2.09,1.14c-0.25,0.13-0.5,0.27-0.74,0.41c-0.92,0.49-1.84,1-2.75,1.5
			c-0.12,0.07-0.24,0.13-0.35,0.19c-0.32,0.18-0.63,0.35-0.94,0.53c-0.19,0.1-0.37,0.2-0.55,0.31c-1.62,0.89-3.23,1.8-4.83,2.71
			c-1.11,0.63-2.22,1.26-3.32,1.89c-3.13,1.8-6.22,3.61-9.28,5.43c-2.82,1.68-5.61,3.37-8.36,5.07c-0.01,0-0.01,0-0.01,0.01
			c-1.91,1.17-3.79,2.34-5.66,3.52c-0.04,0.02-0.08,0.05-0.12,0.08c-0.38,0.23-0.76,0.47-1.14,0.72c-0.04,0.02-0.07,0.04-0.1,0.06
			c-2.01,1.27-4,2.54-5.97,3.82c-0.89,0.58-1.77,1.15-2.65,1.73h-61.71v-55.78h64.44c0.06-0.03,0.13-0.05,0.19-0.08
			c0.01,0,0.01-0.01,0.02-0.01c3.17-1.34,6.35-2.66,9.53-3.96h0.01c0.18-0.08,0.37-0.15,0.55-0.23h0.01
			c0.28-0.11,0.55-0.23,0.83-0.34c0.62-0.26,1.24-0.51,1.87-0.76h0.01c2.58-1.05,5.17-2.08,7.76-3.1c4.16-1.65,8.33-3.25,12.51-4.83
			c2.3-0.86,4.6-1.72,6.91-2.57h0.01c0.84-0.31,1.67-0.61,2.52-0.92c0.64-0.23,1.28-0.47,1.92-0.69l0.01-0.01
			c0.02-0.01,0.03-0.01,0.04-0.02h0.01c0.37-0.13,0.75-0.27,1.12-0.4c0.95-0.34,1.89-0.68,2.84-1.01h0.01
			c2.54-0.91,5.08-1.8,7.62-2.67c0.7-0.25,1.41-0.49,2.11-0.73h0.01v-0.01h0.01c0.76-0.25,1.53-0.51,2.3-0.78c0.01,0,0.01,0,0.02,0
			h0.01c0.43-0.15,0.85-0.29,1.28-0.44c0.36-0.12,0.72-0.24,1.08-0.36h0.01c4.03-1.35,8.06-2.66,12.11-3.94
			c2.81-0.89,5.62-1.76,8.44-2.62c2.18-0.66,4.37-1.32,6.56-1.96c1.1-0.33,2.21-0.65,3.32-0.97c1.24-0.36,2.48-0.72,3.73-1.07
			c0.78-0.22,1.57-0.45,2.36-0.66c0.45-0.13,0.89-0.26,1.34-0.38c0.01,0,0.01,0,0.02-0.01c0.56-0.15,1.1-0.3,1.66-0.45
			c0.73-0.21,1.46-0.41,2.18-0.6c0.48-0.13,0.95-0.26,1.42-0.38c0.54-0.15,1.08-0.3,1.62-0.44c0.99-0.27,1.97-0.53,2.96-0.79
			c0.19-0.05,0.39-0.1,0.58-0.15c0.03-0.01,0.06-0.02,0.09-0.02c0.02,0,0.04-0.01,0.05-0.01c0.6-0.16,1.19-0.32,1.79-0.47
			c0.84-0.22,1.68-0.44,2.52-0.65c0.33-0.09,0.67-0.17,1-0.25c0.55-0.15,1.09-0.28,1.64-0.42c1.23-0.31,2.45-0.61,3.68-0.91
			c1.77-0.44,3.55-0.87,5.32-1.29c1.78-0.42,3.56-0.83,5.34-1.24c0.61-0.15,1.24-0.29,1.85-0.43c0.36-0.08,0.72-0.16,1.08-0.24
			c2.81-0.63,5.63-1.24,8.45-1.84c0.93-0.2,1.86-0.4,2.79-0.59c0.55-0.11,1.08-0.22,1.62-0.33c0.12-0.02,0.24-0.05,0.35-0.07
			c0.61-0.13,1.21-0.25,1.82-0.37c1.12-0.23,2.25-0.45,3.38-0.67c0.02,0,0.05-0.01,0.07-0.01c1.17-0.23,2.34-0.46,3.51-0.68
			c0.91-0.18,1.82-0.35,2.73-0.52c0.29-0.05,0.58-0.1,0.87-0.16c0.72-0.13,1.44-0.26,2.17-0.39l0.36-0.06
			c0.31-0.06,0.61-0.12,0.92-0.17c2.34-0.42,4.68-0.83,7.03-1.22c0.54-0.09,1.08-0.18,1.62-0.27c0.77-0.13,1.54-0.26,2.31-0.38h0.03
			c0,0,0,0,0.01,0c0.11-0.02,0.22-0.04,0.33-0.06c1.08-0.17,2.16-0.34,3.24-0.51c0.61-0.1,1.23-0.19,1.84-0.28
			c7.22-1.11,14.47-2.09,21.74-2.94c0.93-0.11,1.86-0.22,2.79-0.33c0.89-0.1,1.79-0.2,2.68-0.29c1.22-0.14,2.44-0.27,3.65-0.39
			c0.21-0.02,0.43-0.05,0.64-0.07c0.56-0.06,1.13-0.11,1.69-0.17c0.99-0.09,1.99-0.19,2.98-0.28c0.36-0.04,0.73-0.07,1.1-0.1
			c0.49-0.05,0.98-0.09,1.48-0.14c2.78-0.25,5.57-0.48,8.37-0.69c0.66-0.06,1.33-0.11,1.99-0.16c0.45-0.03,0.89-0.06,1.34-0.09
			c0.81-0.06,1.61-0.12,2.42-0.17c0.8-0.05,1.59-0.11,2.39-0.16c0.89-0.05,1.78-0.11,2.67-0.16c0.88-0.05,1.76-0.1,2.64-0.15
			c1.12-0.06,2.25-0.12,3.37-0.17c0.6-0.03,1.19-0.06,1.79-0.08c0.63-0.04,1.27-0.06,1.91-0.09c1.23-0.05,2.46-0.1,3.7-0.15
			c1.05-0.04,2.09-0.07,3.14-0.11c1.05-0.03,2.1-0.06,3.15-0.09c0.86-0.02,1.72-0.04,2.58-0.06c0.68-0.02,1.36-0.03,2.04-0.04h0.15
			c0.13,0,0.27,0,0.41-0.01c0.58-0.01,1.17-0.02,1.76-0.03c1.53-0.02,3.06-0.04,4.58-0.05c1.48-0.01,2.96-0.02,4.44-0.02
			c1.09,0,2.18,0.02,3.27,0.02c0.66,0,1.31,0.01,1.97,0.02c1.83,0.02,3.65,0.04,5.48,0.07c1.04,0.02,2.07,0.04,3.11,0.07
			c1.06,0.02,2.12,0.04,3.18,0.07c0.13,0,0.26,0.01,0.39,0.01c0.62,0.02,1.23,0.04,1.85,0.06c0.45,0.01,0.91,0.03,1.37,0.04
			C524.93,109.6,526.96,109.68,529,109.77z"/>
		<path class="st14" d="M529,79.44v30.34c-69.27-3.06-135.76,5.9-200.57,23.93c1.95-1.61,3.66-3.31,5.04-4.7
			c3.14-3.14,10.19-11.37,14.5-6.67c1.96-5.48,4.7,1.18,8.23,0.4c1.96-0.4,3.14-3.53,5.1-4.31c0.39,0,5.09-0.79,5.88-0.79
			c7.44-1.18,12.53-4.3,18.41-8.23c0.79,0.79,1.96,1.58,2.35,2.35c3.14-3.53,9.4-10.18,14.5-6.27c1.95-1.56,3.92-2.74,5.88-3.92
			c1.95,3.92,3.91,0.39,7.44-0.4c5.09-1.56,3.14,0,7.44,0.4c2.61,0,5.22-0.86,7.83-1.8c1.71-0.61,3.4-1.27,5.1-1.73
			c1.17-0.4,5.49-1.57,6.66-1.57c2.35,0,5.09,1.18,7.05,1.18c2.74-0.39,4.7-3.13,6.67-3.53c1.56-0.39,2.35,2.35,3.53,1.96
			c1.56-0.39,2.35-1.18,3.92-1.96c6.66-2.35,7.44-6.65,13.72-1.56c2.35,1.96,3.92,5.49,7.44,4.31c1.56-0.4,1.17-2.35,1.96-3.14
			c0.39-0.39,2.74-1.56,2.74-1.56c2.74-2.75,1.96-3.53,4.7-3.93c0.79-0.39,2.35,1.96,3.14,1.96c0.59-0.08,1.19-0.25,1.78-0.46
			c2.13-0.74,4.21-2.15,6.05-3.07c6.67-3.53,7.45-1.18,13.33-1.56c3.13-0.4,6.27-4.31,9.4-5.49C528.49,79.52,528.75,79.46,529,79.44
			z"/>
		<g class="st15">
			<path class="st16" d="M351.7,120.91c-0.44,0.12-0.85,0.15-1.19,0.38c-0.88,0.59-0.49,0.79-0.99,1.67c-1.56,2.45-3.03,0.39-5,0.29
				c-2.15-0.1-4.5,1.47-6.47,2.35c-0.87,0.35-1.67,0.76-2.47,1.23c3.55-3.59,8.86-8.31,12.37-4.49
				C349,119.47,350.24,119.94,351.7,120.91z"/>
			<path class="st16" d="M367.17,117.64c6.97-1.11,11.88-3.91,17.32-7.5c-0.22,2.7-2.22,4.76-4.79,5.47
				c-2.55,0.68-4.8,2.35-7.35,2.65c-1.27,0.09-2.35-0.2-3.53,0.29c-1.27,0.39-2.26,1.47-3.53,1.86c-0.98,0.39-2.06,0.29-3.03,0.59
				c-1.28,0.29-2.35,0.97-3.53,1.37c-0.76,0.2-1.51,0.35-2.19,0.27c1.75-0.67,2.89-3.47,4.74-4.21
				C361.68,118.43,366.39,117.64,367.17,117.64z"/>
			<path class="st16" d="M476.76,91.87c-5.31-0.53-8.34,2.8-13,5.12c-2.35,0.99-3.91,0.79-6.47,0.99c-2.35,0.19-4.31,1.56-6.67,1.76
				c-1.76,0.19-3.71-0.99-5.48-0.59c-2.94,0.59-3.53,3.92-6.46,3.92c-2.55,0-4.51-2.55-6.87-1.96c-1.36,0.4-1.95,1.57-3.13,2.16
				c-0.79,0.39-2.55,0.59-3.53,0.98c-3.34,0.98-5.69-0.98-9.02-0.2c-1.96,0.4-3.53,1.96-5.29,2.55c-2.35,0.59-2.55-0.39-4.7-0.59
				c-1.96-0.2-3.14,0.79-4.9,1.38c-1.37,0.39-2.94,0.19-4.3,0.39c-3.43,0.54-7.02,7.89-8.49,3.4c3.28-3.62,9.16-9.37,13.98-5.67
				c1.95-1.56,3.91-2.74,5.88-3.91c1.95,3.91,3.92,0.39,7.44-0.4c5.09-1.56,3.14,0,7.44,0.4c2.61,0,5.22-0.86,7.83-1.8
				c1.7-0.61,3.4-1.27,5.1-1.73c1.17-0.4,5.49-1.58,6.67-1.58c2.35,0,5.09,1.18,7.05,1.18c2.74-0.39,4.7-3.13,6.67-3.53
				c1.56-0.39,2.35,2.35,3.53,1.96c1.56-0.39,2.35-1.18,3.91-1.96C470.28,91.9,471.3,87.91,476.76,91.87z"/>
			<path class="st16" d="M529,79.44v2.61c-1.66,0.87-3.4,1.5-4.9,2.8c-2.15,1.76-2.54,4.11-5.88,4.7
				c-5.48,0.79-8.62-2.74-12.93,1.96c-1.95,2.15-2.94,3.92-6.27,3.53c-2.35-0.2-3.53-1.58-5.68-0.99c-2.16,0.4-4.11,2.55-6.46,2.94
				c-1.21,0.28-1.93,0.28-2.46,0.07c0.22-0.04,0.45-0.1,0.69-0.18c1.56-0.4,1.18-2.35,1.96-3.14c0.39-0.39,2.74-1.56,2.74-1.56
				c2.74-2.75,1.96-3.53,4.7-3.93c0.79-0.39,2.35,1.96,3.14,1.96c0.59-0.08,1.19-0.25,1.77-0.46c2.13-0.74,4.21-2.15,6.05-3.07
				c6.67-3.53,7.45-1.18,13.33-1.56c3.13-0.4,6.27-4.32,9.4-5.49C528.5,79.52,528.75,79.46,529,79.44z"/>
		</g>
	</g>
	<path class="st17" d="M529,164.87V225H0V117.1c60.49-9.23,140.08-0.75,216.34,18.45c2.16,0.54,4.32,1.09,6.48,1.65v0.01
		c0.37,0.09,0.74,0.18,1.11,0.28c2.51,0.66,5.01,1.33,7.51,2.01c1.72,0.46,3.43,0.93,5.13,1.41c0.33,0.09,0.66,0.18,0.98,0.27
		c9.25,2.59,18.42,5.33,27.46,8.21c1.56,0.5,3.11,0.99,4.66,1.5c0.82,0.27,1.64,0.53,2.46,0.8c0.01,0.01,0.01,0.01,0.02,0.01h0.01
		c0.76,0.25,1.51,0.5,2.26,0.75c6.41,2.13,12.75,4.33,19,6.59c1.17,0.42,2.34,0.85,3.51,1.28h0.01c1.29,0.48,2.58,0.95,3.86,1.43
		c0.04,0.02,0.08,0.03,0.11,0.04c0.93,0.35,1.85,0.7,2.77,1.05c0.62,0.23,1.23,0.46,1.84,0.7h0.02c4.38,1.68,8.71,3.38,12.99,5.12
		c1.97,0.79,3.92,1.59,5.86,2.4c0.2,0.08,0.4,0.17,0.6,0.25c19.9,8.3,38.54,17.23,55.34,26.61c8.01-3.92,17.19-7.7,27.19-11.2
		c0.92-0.33,1.85-0.65,2.78-0.96c0.51-0.18,1.03-0.36,1.55-0.52c2.19-0.74,4.41-1.47,6.67-2.17c0.75-0.23,1.5-0.47,2.26-0.7
		c2.23-0.68,4.49-1.35,6.77-2.01c0.82-0.24,1.65-0.47,2.49-0.7c0.36-0.1,0.72-0.2,1.09-0.3h0.01c0.15-0.04,0.3-0.09,0.45-0.13
		c0.27-0.08,0.53-0.15,0.8-0.22c0.22-0.06,0.44-0.12,0.66-0.17c0.2-0.06,0.4-0.11,0.6-0.17c0.13-0.03,0.26-0.06,0.39-0.1l0.01-0.01
		c0.18-0.04,0.35-0.09,0.52-0.14c0.06-0.01,0.13-0.03,0.2-0.05c0.29-0.07,0.58-0.15,0.87-0.23c0.45-0.12,0.9-0.24,1.36-0.36
		c0.61-0.16,1.22-0.32,1.83-0.47c0.24-0.06,0.49-0.12,0.73-0.18c0.55-0.14,1.09-0.28,1.64-0.41c0.07-0.02,0.15-0.04,0.22-0.06
		c0.07-0.02,0.15-0.04,0.22-0.05c0.79-0.2,1.57-0.39,2.36-0.57c0.34-0.08,0.69-0.17,1.03-0.25c0.31-0.08,0.63-0.16,0.94-0.23
		c0.63-0.15,1.26-0.3,1.89-0.44c0.68-0.16,1.36-0.32,2.04-0.46c0.71-0.16,1.42-0.33,2.14-0.49c0.73-0.17,1.47-0.33,2.2-0.49
		c0.28-0.06,0.57-0.12,0.86-0.18c0.14-0.03,0.28-0.06,0.42-0.09c0.88-0.19,1.77-0.37,2.65-0.55c0.35-0.08,0.69-0.15,1.04-0.22
		c0.68-0.14,1.37-0.27,2.05-0.41c0.13-0.02,0.25-0.05,0.38-0.07c1.13-0.22,2.27-0.44,3.4-0.66c0.56-0.11,1.12-0.21,1.68-0.31
		c0.03-0.01,0.07-0.02,0.1-0.02c0.81-0.15,1.61-0.3,2.42-0.44c0.84-0.15,1.68-0.3,2.52-0.44c0.64-0.12,1.28-0.23,1.92-0.33
		c0.23-0.04,0.46-0.08,0.7-0.12c0.17-0.03,0.35-0.06,0.53-0.09c0.63-0.1,1.25-0.2,1.88-0.3c0-0.01,0.01,0,0.01,0
		c0.91-0.15,1.82-0.29,2.73-0.43l0.39-0.06c0.28-0.05,0.55-0.09,0.83-0.12c0.72-0.12,1.44-0.22,2.17-0.33
		c0.04,0,0.08-0.01,0.12-0.01c0.06-0.01,0.12-0.02,0.17-0.03c0.46-0.07,0.92-0.13,1.39-0.19c0.15-0.03,0.3-0.05,0.45-0.06
		c0.37-0.06,0.74-0.11,1.11-0.16c0.1-0.02,0.21-0.03,0.32-0.04c0.24-0.04,0.48-0.07,0.71-0.1c0.08-0.01,0.17-0.02,0.26-0.03
		c1.51-0.19,3.01-0.39,4.51-0.57c0.84-0.1,1.68-0.2,2.52-0.29c0.72-0.09,1.43-0.17,2.14-0.24c0.52-0.06,1.04-0.12,1.56-0.17
		c0.15-0.02,0.29-0.03,0.44-0.04c0.37-0.04,0.75-0.08,1.12-0.11c1.6-0.16,3.19-0.31,4.78-0.44c0.68-0.06,1.36-0.12,2.04-0.17
		c0.21-0.02,0.41-0.04,0.62-0.05c0.77-0.06,1.54-0.12,2.31-0.17c0.83-0.06,1.66-0.12,2.48-0.17c0.64-0.04,1.27-0.08,1.9-0.12
		c0.19-0.01,0.38-0.02,0.57-0.03c0.94-0.05,1.88-0.1,2.81-0.14c0.35-0.02,0.69-0.03,1.03-0.05c0.35-0.01,0.7-0.03,1.05-0.04
		c0.92-0.04,1.84-0.07,2.76-0.1c0.08-0.01,0.16-0.01,0.24-0.01c0.28,0,0.57-0.01,0.85-0.02c0.96-0.02,1.91-0.04,2.86-0.06
		c0.19,0,0.38,0,0.57-0.01C527.41,164.88,528.21,164.87,529,164.87z"/>
	<g>
		<path class="st18" d="M248.28,144.28c-42.13-12.43-86.31-21.76-128.55-26.78c-43.41-5.15-84.76-5.74-119.73-0.4V84.93
			c3.66,0.57,7.42,2.15,10.19,2.94c3.14,0.79,6.27,4.7,9.4,4.7c4.7-0.78,6.27-4.7,11.76-4.7c7.84,0,11.76,6.28,19.6,5.49
			c6.27-0.79,14.88-10.19,17.23,0c5.49-2.35,15.68,1.56,21.95,3.14c0.79-0.79,0.79-1.57,1.56-3.14c5.49,7.05,13.33,3.92,19.6,4.7
			c9.4,2.35,18.02,7.05,28.21,9.4c7.05,0.79,18.81,0,25.07,2.35c2.35,0.79,0.79,5.49,2.35,6.27c2.35,0.79,5.49,0,7.84,0
			c3.14,1.58,7.05,2.35,10.97,2.35c10.98,0,11.76,0,21.16,4.7c7.84,3.14,14.11,5.49,21.16,9.4
			C233.89,135.88,240.82,140.65,248.28,144.28z"/>
		<path class="st19" d="M129.49,122.91c-50.22-7.86-105.2-1.29-129.49,4.23V96.87c0.48,0.29,1.01,0.49,1.58,0.58
			c1.36,0.2,2.74-1.18,3.53-0.98c1.36,0,1.95,1.18,3.13,1.76c1.96,0.98,3.53,2.15,5.49,2.94c3.14,1.38,6.47-0.2,9.61-0.59
			c5.48-0.79,7.64,6.67,12.73,6.67c2.94,0,3.91-3.53,6.08-4.11c1.56-0.4,2.74,0.59,4.7,0c2.35-0.79,1.95-1.58,4.5-1.38
			c1.18,0.2,3.33,0.39,4.5,0.79c3.34,0.98,3.53,4.11,7.64,3.33c2.55-0.59,5.49-2.94,8.04-2.74c1.76,0.19,3.91,2.15,5.48,2.94
			c3.34,1.56,7.84,4.5,11.57,5.29c1.36,0.39,3.53,0.78,4.89-0.2c0.59-0.39,0.79-1.76,1.18-1.96c1.38-0.78,0.59-1.36,2.55-0.19
			c2.74,1.56,5.38,3.87,8.32,5.24c2,1,8.05,1.28,14.16,3.22C123.07,118.56,126.72,120.36,129.49,122.91z"/>
		<path class="st20" d="M380.33,197.92c-5.7,2.62-14.94,7.18-25.93,13.14c-65.49-47.3-169.88-82.76-224.91-88.16
			c-2.74-2.53-6.36-4.33-9.73-5.4C210.95,128.33,311.2,159.31,380.33,197.92z"/>
		<g class="st21">
			<path class="st16" d="M241.21,140.48c-3.23-1.18-34.56-14.25-37.78-15.13c-6.18-1.47-11.03-2.42-16.9-3.01
				c-5-0.29-9.7-2.94-15.28-3.53c-3.82-0.29-6.98,0.8-7.71-3.08c-0.38-1.96-1.99-3.68-6.1-3.97c-5.88-0.59-12.34,0.59-18.51,0
				c-8.52-0.88-15.58-5.29-23.51-8.23c-5.58-1.76-20.04-5.69-20.7-4.44c-3.3,6.24-10.75-1.73-17.8-1.44c-5,0-6.32,1.62-9.99-1.76
				c-4.02-3.7-5.29-2.06-10.29-0.59c-7.64,2.35-11.46,0-18.81-2.64c-9.11-3.53-12.05,6.17-20.57,2.06
				c-3.23-1.47-5.29-2.06-8.82-2.94C5.62,90.91,2.96,88.94,0,87.83v-2.9c3.66,0.57,7.42,2.15,10.19,2.94c3.14,0.79,6.27,4.7,9.4,4.7
				c4.7-0.78,6.27-4.7,11.76-4.7c7.84,0,11.76,6.28,19.6,5.49c6.27-0.79,14.88-10.19,17.23,0c5.49-2.35,15.68,1.56,21.95,3.14
				c0.79-0.79,0.79-1.57,1.56-3.14c5.49,7.05,13.33,3.92,19.6,4.7c9.4,2.35,18.02,7.05,28.21,9.4c7.05,0.79,18.81,0,25.07,2.35
				c2.35,0.79,0.79,5.49,2.35,6.27c2.35,0.79,5.49,0,7.84,0c3.14,1.58,7.05,2.35,10.97,2.35c10.98,0,11.76,0,21.16,4.7
				c7.84,3.14,14.11,5.49,21.16,9.4C232,134.79,236.44,137.71,241.21,140.48z"/>
		</g>
		<path class="st22" d="M129.49,122.91c-3.26-0.5-6.52-0.95-9.8-1.34c-1.64-3.22-8.83-2.43-12.71-4.1
			c-4.88-2.1-8.52-6.56-12.14-3.94c-3.08,2.24-7.25,0.98-10.78-0.39c-4.89-1.76-9.4-5.1-14.69-3.93c-3.72,0.79-5.29,1.58-9.2,0.4
			c-2.94-0.99-5.88-2.94-8.82-2.75c-1.76,0.2-5.68,1.18-6.85,2.16c-1.18,0.78-1.18,2.94-2.35,3.33c-1.38,0.79-3.53-0.59-4.7-0.98
			c-3.14-1.18-5.88-3.14-8.82-4.11c-2.55-0.99-3.53,0.39-6.08,0.59c-3.92,0.39-7.64-2.75-11.37-3.73c-0.97-0.2-1.95-0.2-3.33-0.79
			c-2.66-0.96-5.24-2.08-7.84-3.1v-3.36c0.48,0.29,1.01,0.49,1.58,0.58c1.36,0.2,2.74-1.18,3.53-0.98c1.36,0,1.95,1.18,3.13,1.76
			c1.96,0.98,3.53,2.15,5.49,2.94c3.14,1.38,6.47-0.2,9.61-0.59c5.48-0.79,7.64,6.67,12.73,6.67c2.94,0,3.91-3.53,6.08-4.11
			c1.56-0.4,2.74,0.59,4.7,0c2.35-0.79,1.95-1.58,4.5-1.38c1.18,0.2,3.33,0.39,4.5,0.79c3.34,0.98,3.53,4.11,7.64,3.33
			c2.55-0.59,5.49-2.94,8.04-2.74c1.76,0.19,3.91,2.15,5.48,2.94c3.34,1.56,7.84,4.5,11.57,5.29c1.36,0.39,3.53,0.78,4.89-0.2
			c0.59-0.39,0.79-1.76,1.18-1.96c1.38-0.78,0.59-1.36,2.55-0.19c2.74,1.56,5.38,3.87,8.32,5.25c2,1,8.05,1.28,14.16,3.21
			c0.02,0.01,0.04,0.01,0.06,0.02h0.01C123.11,118.58,126.75,120.37,129.49,122.91z"/>
	</g>
	<g>
		<path class="st18" d="M171.37,176.32C120.31,158.89,51.7,147.19,0,156.53V139.9c2.01-0.56,2.47-2.68,4.31-3.05
			c6.27-1.57,7.84,3.13,13.32,3.53c1.18,0,3.53-1.57,5.49-1.57c2.74-0.39,6.67-0.39,9.4,0c3.53,0.79,6.67,1.96,10.19,2.35
			c10.58,1.18,17.63,7.45,27.43,4.7c11.75-2.74,18.42,2.35,29.39,4.31c-0.39-0.79,0-1.96-0.39-3.14c3.13-0.39,6.65,1.96,9.79,2.75
			c3.14,0.78,7.05,0.39,10.58,0.78c7.84,0.79,12.14,5.49,19.6,7.84c3.13,1.18,8.62,1.18,11.36,2.74c3.53,1.96,5.88,6.67,9.4,9.4
			c3.53,2.35,7.45,3.53,10.98,5.49C171.03,176.12,171.21,176.21,171.37,176.32z"/>
		<g class="st23">
			<path class="st16" d="M157.59,168.38c-1.41-0.64-2.81-1.6-4.38-2.72c-4.11-3.23-5-3.23-9.7-3.82
				c-7.35-1.18-13.52-7.05-20.57-8.52c-2.94-0.59-6.17,0.59-9.11,0.59c-3.82-0.29-7.35-2.06-11.17-1.76c-2.94,0-5.29,1.18-8.82,0.59
				c-3.82-0.88-7.35-3.23-10.87-4.12c-6.17-1.17-13.22,0-19.4-0.29c-8.23-0.29-15.87-3.53-23.51-5.88
				c-3.82-1.18-7.94-1.76-11.75-1.47c-3.82,0.29-6.17,2.06-9.4,2.65c-3.82,0.59-7.05-2.35-10.58-2.06
				c-2.35,0.29-2.94,1.76-5.29,2.06c-1.05,0.11-2.05,0.02-3.03-0.16v-3.56c2.01-0.57,2.47-2.68,4.31-3.05
				c6.27-1.57,7.84,3.13,13.32,3.53c1.18,0,3.53-1.57,5.49-1.57c2.74-0.39,6.67-0.39,9.4,0c3.53,0.79,6.67,1.96,10.19,2.35
				c10.58,1.18,17.63,7.45,27.43,4.7c11.75-2.74,18.42,2.35,29.39,4.31c-0.39-0.79,0-1.96-0.39-3.14c3.13-0.39,6.65,1.96,9.79,2.75
				c3.14,0.78,7.05,0.39,10.58,0.78c7.84,0.79,12.14,5.49,19.6,7.84c3.13,1.18,8.62,1.18,11.36,2.74
				C153.19,162.64,155.2,165.77,157.59,168.38z"/>
		</g>
		<path class="st24" d="M177,180.48c-45.29-12.97-101.58-18.17-128.28-9.37c-20.65,6.83-31.6,10.11-48.73,6.47v-21.04
			c51.69-9.36,120.26,2.34,171.31,19.74C173.38,177.4,175.12,179.04,177,180.48z"/>
	</g>
	<g>
		<path class="st25" d="M529,149.86v15.01c-31.45,0.17-66.8,5.91-97.86,14.5c1.82-0.75,3.55-1.71,5-2.94
			c1.17-0.59,2.35-2.94,3.23-3.53c1.47-0.59,2.94,0.88,3.82,0.59c4.11-1.76,9.11-5.29,12.93-8.52c4.11,4.7,5.29,0.29,9.4-1.47
			c2.94-1.17,5.29-0.88,8.82-2.64c3.82-2.06,5.29-1.18,9.11-1.76c1.47-0.29,4.11-2.06,5-2.06c1.76,0.29,3.53,2.35,5,2.94
			c1.76-8.82,7.93-3.82,12.34-4.7c0.29-0.29,0.29-2.06,0.88-2.35c0.88-0.29,1.47,0.59,2.06,0.59c0.59-0.59,2.65-0.29,3.53-0.59
			c2.64-0.88,5.88-3.23,7.93-5c2.35,2.94,5.29,1.17,8.23,1.76C528.61,149.74,528.81,149.8,529,149.86z"/>
		<g class="st26">
			<path class="st16" d="M526.47,149.56c-0.48,0.6-1.1,1.1-1.88,1.41c-1.17,0.39-2.74-0.29-3.82,0.29
				c-1.38,0.79-1.86,2.84-3.62,3.53c-1.08,0.39-2.16,0-3.14,0.68c-0.79,0.4-0.98,1.18-1.86,1.28c-0.5,0-0.99-0.69-1.58-0.59
				c-1.56,0.19-1.86,2.06-3.13,2.74c-1.76,0.98-2.65-0.2-4.22-0.79c-1.07-0.48-2.35-0.29-3.42-0.19c-1.58,0.19-2.35,0.39-3.14,1.76
				c-0.88,1.36-0.98,2.54-2.84,2.94c-2.35,0.39-3.03-1.87-4.89-2.75c-1.67-0.78-2.55,0.69-4.12,1.08c-1.58,0.39-3.14-0.49-4.7-0.59
				c-1.67-0.09-3.04,0.59-4.51,1.18c-2.45,0.98-4.89,1.96-7.35,2.94c-1.47,0.49-3.23,0.29-3.82,1.96c-0.09,0.34-0.02,0.73,0.04,1.11
				c-0.9,0.29-1.85,0.45-2.48,0.51c-0.79,0.11-1.56,0-2.35,0.11c-0.73,0.09-1.47,0.44-2.26,0.28c-0.88-0.14-1.36-0.87-2.25-0.63
				c-0.63,0.2-1.28,0.74-1.81,1.13c-1.28,0.93-2.94,1.33-4.17,2.3c-0.59,0.54-0.68,1.27-1.17,1.81c-0.67,0.75-1.95,1.12-3,1.67
				c-0.46,0.11-0.92,0.17-1.46,0.14c-0.98-0.05-2.1-0.39-3.08-0.34c-1.28,0.1-2.5,1.76-3.48,2.5c-0.49,0.34-0.95,0.68-1.33,1.12
				c-1.51,0.39-3.01,0.8-4.5,1.21c1.82-0.75,3.55-1.71,5-2.94c1.17-0.59,2.35-2.94,3.23-3.53c1.47-0.59,2.94,0.88,3.82,0.59
				c4.11-1.76,9.11-5.29,12.93-8.52c4.11,4.7,5.29,0.29,9.4-1.47c2.94-1.17,5.29-0.88,8.82-2.64c3.82-2.06,5.29-1.18,9.11-1.76
				c1.47-0.29,4.11-2.06,5-2.06c1.76,0.29,3.53,2.35,5,2.94c1.76-8.82,7.93-3.82,12.34-4.7c0.29-0.29,0.29-2.06,0.88-2.35
				c0.88-0.29,1.47,0.59,2.06,0.59c0.59-0.59,2.65-0.29,3.53-0.59c2.64-0.88,5.88-3.23,7.93-5
				C522.02,150.21,524.2,149.64,526.47,149.56z"/>
		</g>
		<path class="st27" d="M529,164.86v20.35c-7.94-1.71-14.99-2.69-23.9,0.64c-9.41,3.51-12.8,9.26-22.21,12.5
			c-3.23,1.17-6.76,2.94-9.99,1.76c-4.05-3.1,2.81-11.91-3.95-13.97c-4.63-1.48-10.39-1.67-16.88-0.69
			c-47.58,8.08-85.46,23.96-115.66,39.55h-6.33c3.2-1.94,6.36-3.81,9.46-5.61c1.93-1.12,3.83-2.21,5.71-3.27
			c0.25-0.14,0.5-0.28,0.75-0.42c0.26-0.15,0.52-0.3,0.78-0.44c4.93-2.77,9.63-5.31,13.95-7.58c8.19-4.31,15.03-7.66,19.6-9.76
			c8.01-3.92,17.19-7.7,27.19-11.2c0.92-0.33,1.85-0.65,2.78-0.96c0.51-0.18,1.03-0.36,1.55-0.52c2.19-0.74,4.41-1.47,6.67-2.17
			c0.75-0.23,1.5-0.47,2.26-0.7c2.23-0.69,4.49-1.36,6.77-2.01c0.82-0.24,1.65-0.47,2.49-0.7c0.36-0.11,0.73-0.21,1.09-0.31
			c0.02-0.01,0.05-0.01,0.07-0.02c0.4-0.11,0.79-0.22,1.19-0.32c0.55-0.15,1.1-0.29,1.65-0.44c0.24-0.07,0.49-0.13,0.73-0.2
			c0.29-0.07,0.58-0.15,0.87-0.23l0.01-0.01c0.45-0.12,0.9-0.24,1.35-0.35c0.61-0.16,1.22-0.32,1.83-0.47
			c0.24-0.06,0.49-0.12,0.73-0.18c0.62-0.16,1.24-0.32,1.86-0.47c0.86-0.21,1.72-0.42,2.58-0.62c1.95-0.47,3.92-0.93,5.89-1.38
			c0.71-0.16,1.43-0.33,2.14-0.49c0.73-0.17,1.47-0.33,2.2-0.49c0.28-0.06,0.57-0.12,0.86-0.18c0.14-0.03,0.28-0.06,0.42-0.09
			c1.23-0.26,2.46-0.53,3.69-0.77c0.68-0.14,1.37-0.27,2.05-0.41c0.13-0.02,0.25-0.05,0.38-0.07
			C484.17,167.7,507.5,164.97,529,164.86z"/>
	</g>
	<g>
		<g>
			<path class="st28" d="M92.88,209.33c-6.46,2.67-12.78,3.87-18.22,4.29c-4.68,0.22-14.15-1.91-19.85-3.86
				c0.41-2.06,1.45-4.42,2.69-5.68c-1.13-0.96,2.94-6,4.24-7.07c-3.4,1.87-0.64-2.82,0.26-4.01c1.66-2.1,3.76-3.71,4.72-6.41
				c-0.26,0.27-0.93,0.55-1.32,0.7c0.53-2.31,3.4-5.7,6.49-7c-0.66-1.23-1.48-2.42-2.34-3.31c0.57-0.37,1.24-0.57,1.89-0.5
				c0.76,0.91,1.55,2.09,2.1,3.33c0.28-0.04,0.56-0.06,0.83-0.05c0.46-0.01,0.9,0.02,1.31,0.1c0.62-2.44,1.65-4.75,3.24-6.81
				c0.69-0.02,1.36,0.16,1.62,0.78c-1.19,2.03-2.38,4.21-3.21,6.49c2.06,0.83,3.79,2.39,5.54,3.62c-0.28-0.12-0.82-0.09-1.1-0.2
				c0.09,1.89,2.83,2.39,3.7,3.61c0.57,0.6,0.49,1.74,0.93,2.48c0.6,1.11,1.59,1.95,2.44,2.79c-0.41-0.11-1.23-0.07-1.91-0.16
				c0.63,1.74,3.12,2.75,3.75,4.62c-0.41,0.02-0.67,0.29-1.35,0.19c-0.21,1.4,1.76,2.82,2.24,4.19c-0.55-0.1-0.94,0.17-1.51-0.31
				c-0.05,1.5,1.22,2.71,1.12,4.26C92.73,206.23,92.95,207.7,92.88,209.33z"/>
			<g class="st21">
				<path class="st16" d="M92.88,209.33c-0.38,0.15-0.74,0.3-1.12,0.45c-0.15-0.42-0.34-0.84-0.5-1.25
					c-0.45-1.04-0.27-1.27-1.45-1.54c0.36-0.41-0.72-1.95-0.72-2.67c0-0.41,0.27-1.08,0.14-1.49c-0.27-0.68-1.36-1.08-1.76-1.67
					c0.23-0.59-0.14-1.54-0.09-2.22c0.09-0.41,0.27-0.81,0.27-1.26c0.04-0.76-0.27-1.45-0.95-1.66c-0.01-0.29-0.02-0.61-0.14-0.87
					c-0.18-0.54-0.59-0.99-0.86-1.44c-0.36-0.63-1.22-1.45-1.45-2.12c-0.31-0.86,0.46-0.5,1.04-0.86c0.68-0.41,0.36-0.5-0.14-1.04
					c-0.68-0.77-0.81-1.27-1.09-2.17c-0.27-0.91-0.68-1.22-1.58-1.4c-0.95-0.23-1.98-0.27-2.17-1.45c-0.09-0.81,0.54-0.95,0.05-1.81
					c-0.36-0.59-0.86-0.95-1.49-1.22c-0.41-0.19-2.03-0.54-2.17-0.95c-0.09-0.32,0.63-1.08,0.77-1.36c0.5-1,0.86-2.08,1.31-3.07
					c0.41-1.02,1.03-1.88,1.35-2.93c0.18,0.12,0.33,0.28,0.42,0.5c-1.19,2.03-2.38,4.21-3.21,6.49c2.06,0.83,3.79,2.39,5.54,3.62
					c-0.28-0.12-0.82-0.09-1.1-0.2c0.09,1.89,2.83,2.39,3.7,3.61c0.57,0.6,0.49,1.74,0.93,2.48c0.6,1.11,1.59,1.95,2.44,2.79
					c-0.41-0.11-1.23-0.07-1.91-0.16c0.63,1.74,3.12,2.75,3.75,4.62c-0.41,0.02-0.67,0.29-1.35,0.19c-0.21,1.4,1.76,2.82,2.24,4.19
					c-0.55-0.1-0.94,0.17-1.51-0.31c-0.05,1.5,1.22,2.71,1.12,4.26C92.73,206.23,92.95,207.7,92.88,209.33z"/>
			</g>
			<g class="st21">
				<path class="st16" d="M73.4,179.49c-0.48-0.02-0.79-0.14-1.17-0.8c-0.45-0.76-0.96-1.6-1.75-2.13c0.31-0.09,0.63-0.12,0.96-0.09
					C72.14,177.31,72.86,178.37,73.4,179.49z"/>
			</g>
		</g>
		<g>
			<path class="st29" d="M73.19,212.33c-5,3.14-13.27,4.38-17.48,4.38c-4.75-0.15-10.31-0.22-16.06-2.42
				c0.03-0.82,0.13-1.65,0.32-2.5c0.24-1.42,1.5-3.71,1.42-5.05c-0.32,0.24-0.79,0.39-1.11,0.47c0.24-1.5,0.71-2.84,1.42-4.18
				c0.63-1.11,1.97-2.68,1.97-3.94c-0.08,0.08-0.47,0.16-0.63,0.32c0.47-1.66,0.39-3.16,1.42-4.57c1.02-1.58,1.97-3.15,2.99-4.57
				c-0.08,0-0.24,0.08-0.39,0.08c-0.37-2.74,3.15-5.41,5.61-6.31c-0.54-1.68-1.36-3.31-2.46-4.3c0.39-0.53,0.84-1,1.31-1.32
				c1.33,1.53,2.36,3.34,2.89,5.29c0.39-0.01,0.77,0.03,1.15,0.11c0.05-1.02,0.23-2.02,0.46-3.01c0.34-1.46,0.73-3.01,1.39-4.42
				c0.69-0.25,1.34,0.17,1.86,0.73c-0.78,1.2-1.29,2.7-1.71,4c-0.35,1.01-0.58,2.04-0.7,3.08c1.92,0.76,3.64,2.27,4.96,3.39
				c0.55,0.47,4.02,4.02,2.21,4.26c1.42,2.13,2.92,4.1,3.47,6.7c-0.31-0.24-0.63-0.16-0.95-0.32c0.47,1.58,2.05,2.92,2.76,4.58
				c0.47,1.26,1.5,2.91,1.66,4.26c0.16,0.95-0.32,0.63,0.24,1.57c0.55,0.95,1.26,1.42,1.66,2.52
				C72.97,211.54,73.08,211.94,73.19,212.33z"/>
			<g class="st21">
				<path class="st16" d="M73.19,212.34c-0.94,0.59-2,1.12-3.12,1.57c-0.36,0.15-0.72,0.28-1.09,0.42
					c-0.02,0.01-0.04,0.02-0.06,0.02c-0.03-0.6-0.08-1.19-0.15-1.73c-0.06-0.46-0.12-0.89-0.18-1.26c-0.4-1.89-1.42-3.63-2.45-5.21
					c-0.71-1.02-1.89-2.13-2.21-3.31c0.08,0,0.24-0.08,0.32-0.16c-0.47-1.03-0.49-4.55-2.07-4.08c-0.89-1.72-0.02-2.74-0.65-3.61
					c-0.71-0.79-2.04-1.2-1.8-2.46c0.16,0.16,1.69-0.2,1.98-1.33c0.04-1.61-1.05-2.79-2.26-3.95c-0.82-0.8-1.7-1.59-2.29-2.51
					c-0.06-0.09-0.12-0.19-0.17-0.28c0,0,0-0.01,0-0.01c-0.03-0.07-0.06-0.15-0.08-0.23c1.22,0.49,2.36,1.29,3.36,2.08
					c0.56,0.44,1.07,0.88,1.54,1.28c0.55,0.47,4.02,4.02,2.21,4.26c1.42,2.13,2.92,4.1,3.47,6.7c-0.31-0.24-0.63-0.16-0.95-0.32
					c0.47,1.58,2.05,2.92,2.76,4.58c0.47,1.26,1.5,2.91,1.66,4.26c0.16,0.95-0.32,0.63,0.23,1.58c0.55,0.95,1.26,1.42,1.66,2.52
					c0.07,0.24,0.14,0.49,0.21,0.74C73.11,212.04,73.15,212.19,73.19,212.34z"/>
			</g>
			<g class="st21">
				<path class="st16" d="M59.26,177.12c-0.78,1.2-1.29,2.7-1.71,4c-0.33,0.96-0.55,1.93-0.68,2.93c-0.16-0.82-0.01-2,0.1-2.49
					c0.36-1.69,1.08-3.32,1.82-4.87C58.96,176.81,59.12,176.96,59.26,177.12z"/>
			</g>
			<g class="st21">
				<path class="st16" d="M54.41,183.71c-0.81-1.57-2.36-3.82-3.52-4.77c0.2-0.2,0.41-0.38,0.63-0.52
					C52.85,179.95,53.88,181.76,54.41,183.71z"/>
			</g>
		</g>
		<g class="st30">
			<path class="st31" d="M92.89,209.34c-4.49,5.01-3.35,7.26-4.13,8.25c-1.57,1.76-4.41,1.76-5.88,3.53
				c-0.49,0.68-0.29,1.56-0.78,2.15c-0.5,0.78-1.77,1.27-2.56,1.67c-0.03,0.02-0.07,0.04-0.1,0.06H48.15
				c0.41-0.22,0.83-0.41,1.25-0.58c-0.43,0-0.87,0-1.3,0.02c-1.4,0-0.99-0.07-1.68,0.56H22.93c0.38-0.53,0.31-1.99,0.59-2.61
				c0.48-0.89,1.76-1.77,1.95-2.65c-3.42-0.68-0.78-2.55,0.88-3.91c1.96-1.67,4.7-1.97,7.05-3.05c2.34-1.08,4.45-1.87,6.88-2.09
				c0,0.01,0,0.01-0.01,0.02c-0.02,0.08-0.05,0.16-0.07,0.23c-0.09,0.31-0.16,0.59-0.21,0.85c-0.1,0.43-0.17,0.85-0.23,1.27
				c-0.05,0.42-0.08,0.83-0.1,1.24c0.72,0.28,1.44,0.52,2.15,0.73c0.71,0.21,1.42,0.39,2.12,0.55c0.35,0.08,0.7,0.15,1.05,0.22
				c0.19,0.04,0.37,0.07,0.55,0.1c0.22,0.04,0.43,0.08,0.64,0.11c0.3,0.05,0.59,0.1,0.89,0.13c0.33,0.05,0.67,0.1,1,0.13
				c0.31,0.04,0.61,0.07,0.91,0.1c0.37,0.03,0.73,0.06,1.09,0.09c0.33,0.03,0.66,0.05,0.98,0.07c0.33,0.02,0.65,0.04,0.97,0.05
				c0.61,0.03,1.2,0.06,1.79,0.08h0.19c0.59,0.02,1.17,0.04,1.74,0.06c0.13,0,0.26,0,0.4-0.01c0.13,0.01,0.27,0,0.42-0.01
				c0.15,0,0.3-0.01,0.46-0.02c0.3-0.01,0.62-0.03,0.95-0.06c0.35-0.02,0.7-0.05,1.07-0.09c0.52-0.06,1.05-0.12,1.6-0.2
				c0.03,0,0.05-0.01,0.08-0.01c0.9-0.13,1.84-0.29,2.79-0.48c1.42-0.29,2.87-0.65,4.27-1.1c0.39-0.12,0.78-0.25,1.16-0.39
				l0.01-0.01c0.02,0,0.03-0.01,0.05-0.01l0.63-0.24c0.16-0.06,0.3-0.12,0.45-0.18h0.01c0.17-0.07,0.34-0.15,0.51-0.22
				c0.07-0.03,0.14-0.07,0.21-0.1c0.08-0.04,0.17-0.07,0.25-0.11c0.01,0,0.01-0.01,0.02-0.01c0.01,0,0.01,0,0.01,0s0-0.01,0.01-0.01
				c0.01,0,0.01,0,0.01,0c0.47,0.05,0.93,0.09,1.36,0.13c0.07,0,0.13,0,0.19,0.01c0.21,0.01,0.42,0.02,0.63,0.03
				c0.26,0.01,0.51,0.01,0.76,0.01c0.22,0,0.43,0,0.63-0.01c0.34-0.03,0.68-0.06,1.02-0.09c0.69-0.06,1.4-0.14,2.12-0.24
				c0.36-0.04,0.72-0.09,1.08-0.15c0.37-0.05,0.74-0.1,1.11-0.17c1.11-0.18,2.24-0.39,3.39-0.66c0.38-0.08,0.77-0.17,1.16-0.27
				c0.38-0.09,0.77-0.19,1.16-0.3c0.3-0.07,0.59-0.15,0.89-0.24c0.88-0.25,1.77-0.52,2.67-0.83c0.4-0.13,0.8-0.27,1.2-0.42
				c0.43-0.15,0.86-0.31,1.29-0.48h0.01C92.15,209.64,92.51,209.49,92.89,209.34z"/>
		</g>
	</g>
</g>
</svg>
