<?xml version="1.0" encoding="utf-8"?>
<!-- Generator: Adobe Illustrator 27.1.0, SVG Export Plug-In . SVG Version: 6.00 Build 0)  -->
<svg version="1.1" id="Capa_1" xmlns="http://www.w3.org/2000/svg" xmlns:xlink="http://www.w3.org/1999/xlink" x="0px" y="0px"
	 viewBox="0 0 1344 1341" style="enable-background:new 0 0 1344 1341;" xml:space="preserve">
<style type="text/css">
	.st0{fill:#EF8E62;}
	.st1{fill:#D26431;}
	.st2{fill:#F5DDA1;}
	.st3{fill:#769E55;}
	.st4{fill:#3F1419;}
	.st5{fill:none;}
</style>
<g id="Capa_5">
	<g transform="translate(0.000000,1341.000000) scale(0.100000,-0.100000)">
		<path class="st0" d="M5707.8,9456.6c-44-46-149-139-233-207l-153-125l33-7c56-11,368-33,473-33h100l55,17c30,9,63,23,72,30l18,13
			l-43,93c-23,51-58,114-77,140c-38,51-147,162-159,162C5789.8,9539.6,5750.8,9502.6,5707.8,9456.6z"/>
		<path class="st0" d="M5627.8,8971.6c6-5,43-21,84-36l74-26h74h74l28,15c16,8,31,21,35,30l5,15l-42-6c-23-3-52-7-63-9
			c-24-5-227,12-259,21l-20,6L5627.8,8971.6z"/>
		<path class="st0" d="M7752.8,8742.6c-8-32-39-108-70-169c-31-60-64-141-74-180c-10-38-51-190-91-339c-40-148-82-310-93-360
			c-27-113-67-326-81-425c-6-41-17-106-23-145l-12-70l-38-60c-20-33-51-84-68-112c-16-29-33-53-36-53c-4,0-4,80-1,178l6,177l14,57
			c16,63,6,70-14,11c-6-20-25-60-41-87c-17-28-32-63-34-79c-2-15-15-72-29-125c-57-215-100-322-163-408l-30-41l-46-21l-46-22h-66
			h-67l-61,31c-92,47-171,111-211,173l-19,28l-19-41c-10-22-36-58-57-80l-37-38l-46-18l-46-18l-55,5l-54,4l-55,28
			c-72,35-142,99-221,200c-82,105-113,155-152,243l-31,73l-19-21c-30-34-84-64-157-88l-68-23l-63,31l-63,31l-40,43l-40,44l-22,57
			c-12,32-27,102-33,156l-11,98l12,100l13,100l34,84c19,45,37,88,40,93l4,10l-65,13c-36,7-71,13-77,15l-12,2l-7-35
			c-3-19-32-156-63-305c-32-148-70-358-86-465s-42-269-58-360c-17-91-35-212-41-270c-7-58-17-144-22-192c-6-48-8-92-4-98l7-11l26,5
			c88,19,608,63,1032,88l205,12l540-1h540l303-17c167-10,306-15,309-12c3,2-3,69-12,148s-19,208-22,287l-6,144l12,166
			c13,173,31,280,82,491c66,271,193,697,338,1127l78,231l-91,16c-134,24-279,46-297,46h-16L7752.8,8742.6z"/>
	</g>
	<g transform="translate(0.000000,1341.000000) scale(0.100000,-0.100000)">
		<path class="st1" d="M6047.8,12172.6c-33-13-91-45-130-71l-70-47l-52-65c-29-36-71-101-93-145l-40-80l-17-80l-16-80l13-120l12-120
			l27-95l28-95l49-5l49-6l44-28c24-15,89-72,145-127l101-99l35,12c19,6,51,21,70,33c96,60,303,114,520,137l105,10l117-6
			c139-7,283-37,356-74c28-14,68-43,88-63l35-36l1-32l1-31l-19-21c-10-12-50-37-88-56l-69-35l14-9c8-5,65-39,128-77
			c130-77,232-158,275-220l30-43l4-67l4-68l-15-12l-14-12l-38,16l-38,16l18-29c65-99,173-311,209-413c15-41,36-112,47-158l19-83
			v-114c0-142-18-265-67-463l-39-152h21h20l65,95c76,112,92,140,166,300c127,272,202,464,239,615c31,123,39,197,30,266l-7,56l-35,39
			l-35,39l-62,29c-33,16-92,41-130,57c-90,36-146,79-174,134l-24,45l6,73l6,73l51,147c60,175,72,218,64,243l-6,18l-37,11
			c-20,5-77,10-127,10c-162,0-281,43-356,128c-48,55-75,126-82,222c-11,133-51,211-130,249c-54,26-107,27-155,2c-20-10-68-45-107-77
			c-38-31-98-70-133-87l-63-29l-54,4l-54,5l-35,27c-48,37-84,85-105,144c-43,118-236,394-323,462l-50,40l-31-1
			C6121.8,12198.6,6080.8,12186.6,6047.8,12172.6z"/>
		<path class="st1" d="M5967.8,8808.6c-46-21-76-23-125-5l-35,13l-33-46c-43-60-72-140-79-216l-6-62l10-6c6-4,33,0,61,8l51,15l6,20
			c4,12,17,28,31,36l24,16l28-12l27-11l53-75c30-41,59-73,65-72c7,2,24,28,40,58l27,54v56v56l-46,89c-25,50-49,93-52,96
			C6010.8,8824.6,5989.8,8818.6,5967.8,8808.6z"/>
		<path class="st1" d="M6110.8,6172.6c7-3,16-2,19,1c4,3-2,6-13,5l-19-1L6110.8,6172.6z"/>
		<path class="st1" d="M6960.8,6172.6c7-3,16-2,19,1c4,3-2,6-13,5l-19-1L6960.8,6172.6z"/>
		<path class="st1" d="M5815.8,6162.6c4-3,10-3,14,0c3,4,0,7-7,7S5812.8,6166.6,5815.8,6162.6z"/>
		<path class="st1" d="M7270.8,6162.6c7-3,16-2,19,1c4,3-2,6-13,5l-19-1L7270.8,6162.6z"/>
		<path class="st1" d="M5645.8,6152.6c4-3,10-3,14,0c3,4,0,7-7,7S5642.8,6156.6,5645.8,6152.6z"/>
		<path class="st1" d="M7445.8,6152.6c4-3,10-3,14,0c3,4,0,7-7,7S7442.8,6156.6,7445.8,6152.6z"/>
		<path class="st1" d="M5465.8,6142.6c4-3,10-3,14,0c3,4,0,7-7,7S5462.8,6146.6,5465.8,6142.6z"/>
		<path class="st1" d="M7615.8,6142.6c4-3,10-3,14,0c3,4,0,7-7,7S7612.8,6146.6,7615.8,6142.6z"/>
		<path class="st1" d="M5345.8,6132.6c4-3,10-3,14,0c3,4,0,7-7,7S5342.8,6136.6,5345.8,6132.6z"/>
		<path class="st1" d="M5215.8,6122.6c4-3,10-3,14,0c3,4,0,7-7,7S5212.8,6126.6,5215.8,6122.6z"/>
		<path class="st1" d="M5115.8,6112.6c4-3,10-3,14,0c3,4,0,7-7,7S5112.8,6116.6,5115.8,6112.6z"/>
		<path class="st1" d="M4915.8,6092.6c4-3,10-3,14,0c3,4,0,7-7,7S4912.8,6096.6,4915.8,6092.6z"/>
		<path class="st1" d="M4815.8,6082.6c4-3,10-3,14,0c3,4,0,7-7,7S4812.8,6086.6,4815.8,6082.6z"/>
	</g>
</g>
<g id="Capa_4">
	<g transform="translate(0.000000,1341.000000) scale(0.100000,-0.100000)">
		<path class="st2" d="M5746.7,11017.6l-17-36l28-43c15-23,60-73,99-110s68-68,64-68s-37,14-73,30c-36,17-69,30-74,30s-35-28-67-63
			c-58-62-92-112-83-122c8-7,138-25,187-25h43l-20-29c-12-16-21-31-21-34s-25-49-56-102l-56-97l6-14c7-18,48-34,86-34
			c54,0,146,51,290,159l34,26l-34-50c-39-59-113-149-154-188c-39-38-89-57-145-57h-46l-42,19c-22,11-51,33-64,50c-12,17-29,31-36,31
			h-13l7-42c5-24,7-120,6-214l-2-172l-16-93c-9-52-23-108-32-126l-17-32l25-19l24-20l-27-7c-39-10-157,14-220,44l-53,26l-23,43
			l-24,43l-5,59l-6,60h-13c-8,0-14-6-14-13c0-11-31-69-144-267l-31-55v-95v-95l32-65c34-69,42-80,166-234c43-54,102-132,132-175
			l53-78l12-74l12-73l-9-15c-6-9-27-19-49-24l-39-8l-33-32c-43-40-110-128-144-187c-14-25-38-81-53-125l-27-80l-1-75l-2-76l18-27
			c22-33,78-62,139-71l46-7l22,23c12,13,30,38,41,56c12,17,22,32,24,32c4,0-24-93-53-175c-11-33-25-78-31-100c-18-72-41-247-41-316
			c0-88,24-210,50-257c12-20,37-48,57-60l35-24l62,12l61,11l49,35l48,36l-7,36c-12,64-24,156-21,160c2,1,23-43,46-99
			c24-55,73-151,109-212l66-111l112-116l112-116l56-28l55-27l36,7l35,6l23,32c40,52,77,129,83,173l5,41l-21,70c-11,39-21,74-21,79
			c0,4,32-40,69-98c80-122,157-209,244-275c72-54,117-74,164-74h34l47,32c26,17,55,41,66,52c28,32,79,113,132,212
			c26,49,76,137,110,195c34,59,65,117,69,130s13,33,20,44c6,11,31,90,54,175c58,211,195,612,316,925c61,156,61,155,95,325
			c49,243,81,439,90,559l9,113l-10,177c-11,211-28,319-74,466c-18,61-44,145-56,188l-23,79l-20,8l-21,9h43l42,1v10
			c0,30-32,79-71,111c-68,55-158,106-351,198l-176,84l-13,24l-12,23l11,24l11,24l81,43l81,43l-3,15l-3,15l-56,17
			c-57,16-143,31-298,49c-46,6-171,10-278,10h-193l-113-24c-61-14-125-29-140-35l-28-11l-130,61l-131,62l-44,5l-43,5L5746.7,11017.6
			z M7292.7,10150.6c-7-30-21-67-31-81c-10-15-35-34-54-43l-36-17l-102-4l-102-3l-60-22c-115-43-247-157-330-287c-22-34-43-62-47-63
			c-12,0-21,68-14,109c10,63,56,192,98,273l40,77l38,35l38,34l56,18l56,18l76-12l76-12l39-22c22-12,39-25,39-29c0-12,97-31,120-24
			c31,10,68,54,87,105l18,45l3-20C7303.7,10215.6,7299.7,10181.6,7292.7,10150.6z M5872.7,9576.6c40-14,89-36,110-50
			c70-46,112-124,147-268c10-43,23-78,29-78s60,51,121,113l111,113l-18-41c-29-66-79-146-138-220c-61-75-98-111-122-120l-15-5
			l-16-57c-9-32-22-72-30-89l-13-32l72-78c40-43,82-98,94-123l22-46l-1-55l-1-55l-22-58c-26-70-63-115-107-134l-34-14l-42,19l-43,19
			l-34,44c-19,24-35,46-36,48c-2,1-24-4-51-13c-26-9-69-19-94-22l-46-6l-31,16c-18,9-39,28-48,42l-17,25l6,52c11,108,72,220,152,277
			c19,14,35,32,35,40v16l-57,28c-31,15-103,57-160,92c-56,36-128,74-158,84c-65,22-156,70-151,79c8,12,114,141,203,247
			c51,60,117,128,147,152c53,41,128,81,153,82C5795.7,9600.6,5832.7,9589.6,5872.7,9576.6z"/>
		<path class="st2" d="M5526.7,10799.6c-115-144-150-196-210-312l-45-88l-25-96c-13-52-24-106-24-119v-24h15h15v17c0,10,10,49,22,88
			l22,70l42,42l42,42l38,10c22,6,60,11,85,11h46l16-18c10-10,17-26,17-35s6-17,14-17c7,0,42,26,77,58s79,71,97,87c17,15,32,35,32,43
			v14l-27-6c-142-31-174-30-230,7l-33,22v38v38l56,59c31,32,71,69,90,82s34,30,34,39c0,15-49,69-63,69
			C5625.7,10920.6,5579.7,10866.6,5526.7,10799.6z"/>
		<path class="st2" d="M9972.7,9673.6c0-17,70-177,284-646c164-361,250-583,307-797c39-146,60-266,66-372l6-106l-12-61
			c-13-66-39-136-47-128c-3,3,0,16,7,29l13,23l4,112l4,112l-11,81c-7,44-21,116-32,158c-43,161-156,462-175,462h-12l-5-212l-5-213
			l-16-50l-15-51l-35-33l-34-33l-44-5l-43-5l-69,24l-70,24l-18,25l-18,24l10,80c15,124,38,360,46,468l7,97h-10c-6,0-55-45-109-101
			l-99-100l-87-60c-137-94-207-120-375-139l-90-10l-59,10c-193,33-335,69-499,128c-209,75-370,134-430,157c-98,37-134,49-138,44
			c-2-2-22-85-45-184s-60-256-82-350c-78-322-142-651-174-890c-9-60-29-186-45-280c-35-204-50-381-54-613l-2-172h45
			c45,0,268-20,435-40c50-5,95-10,102-10c6,0,32,33,58,74l46,74l55,38c31,22,74,50,95,62l40,24l42-40c90-82,380-262,423-262h25
			l161,160c89,88,165,160,168,159c3,0,31-54,64-120l59-119l64-75l64-75h48h48l39,28c71,52,200,180,280,278c110,135,141,170,149,163
			c3-4,10-33,16-65c5-33,22-108,37-169l29-110l26-3l25-3l54,27c29,15,78,43,108,62c60,38,288,217,307,242l12,15l1-34
			c0-72,83-502,110-574l21-57l21-11c11-6,30-8,42-5s74,56,138,118l115,113l50,90c69,125,89,172,112,273c28,119,61,295,61,324
			c0,14-32,105-71,202c-39,98-69,179-67,181s19-22,37-53c19-31,57-95,86-142s91-151,139-232l87-148h13c32,0,81,166,111,380
			c7,52,18,202,25,333c7,130,15,236,17,233c6-6,20-110,38-281l16-150l51-78c52-80,92-121,128-132l21-7l24,16c48,32,101,162,170,421
			l27,100l-6,100c-4,55-12,120-18,145c-49,207-119,390-262,685l-93,190l-71,105c-39,58-97,139-129,180c-125,162-339,364-544,516
			c-185,138-263,186-449,275c-227,109-412,151-767,174l-103,7V9673.6z"/>
		<path class="st2" d="M3297.7,9519.6c-218-80-430-181-592-281c-351-218-652-554-872-977c-99-189-152-321-191-469
			c-54-202-63-306-35-400l16-52h44h44l103,41l103,40l64,140c35,77,65,138,67,136c4-3-22-110-65-268c-34-127-60-291-77-492l-17-192
			l12-150c18-219,53-377,107-471c26-46,97-114,118-114c23,0,112,107,153,184c20,39,49,112,64,161l28,90v-35c1-19-6-73-14-120l-15-85
			l26-52c14-29,40-74,58-100c17-27,44-68,58-93c40-70,122-169,196-237c37-35,74-63,82-63s99,23,203,52l187,52v128c0,71,6,170,14,221
			c8,50,20,156,27,234l12,143l9-7c6-3,19-25,29-49l19-43l12-113l11-113l109-104c138-131,200-181,227-181c21,0,129,20,225,42l48,11
			l-6,38c-3,20-15,122-26,226c-11,103-23,203-26,220c-4,18-3,44,0,57c6,26,33,40,58,31c9-4,91-118,184-256l169-249h40
			c22,0,46,4,54,9l13,9l2,63c0,35-3,107-7,161l-9,96l21,21c12,12,25,21,31,21c5,0,74-58,152-130c78-71,147-130,153-130h10v352v353
			l13,60c72,336,140,598,228,882l35,113l-16,29c-8,17-20,64-26,105l-11,74l15,76l16,76l38,62c21,35,75,100,120,145
			c79,79,96,103,72,103c-6,0-167-63-357-139c-191-77-385-151-432-166c-107-33-249-68-365-90l-90-17l-121,6l-121,7l-1-78v-78l-16-45
			c-9-25-28-62-41-82l-25-38l-69-45c-37-25-77-45-89-45c-11,0-30,8-42,18l-21,17l-9,75c-5,41-14,129-20,195s-13,148-16,182l-6,62
			l-19,6c-35,11-119,86-166,146c-25,32-51,59-58,59c-6,0-29-37-50-82c-21-46-60-128-85-183c-48-101-97-211-143-320
			c-25-57-44-115-66-195l-9-35l-1,26c-1,31,43,184,94,327c44,124,200,504,285,697c110,249,201,457,261,599l59,139v32v33l-16,6
			C3408.7,9555.6,3379.7,9549.6,3297.7,9519.6z M2749.7,7603.6c-2-16-4-3-4,27s2,43,4,28C2751.7,7642.6,2751.7,7618.6,2749.7,7603.6
			z"/>
		<path class="st2" d="M7842.7,8874.6v-15l10,6c6,3,10,10,10,16c0,5-4,9-10,9C7847.7,8890.6,7842.7,8883.6,7842.7,8874.6z"/>
	</g>
</g>
<g id="Capa_3">
	<g transform="translate(0.000000,1341.000000) scale(0.100000,-0.100000)">
		<path class="st3" d="M3388.8,12339.6c-74-9-171-22-215-28s-214-28-379-50c-164-22-301-42-303-45c-2-2,5-41,16-87s36-165,56-264
			s45-214,55-255s26-136,35-210l16-135l46-85c25-47,62-112,82-145c37-59,238-336,327-447l45-57l5-38c2-21,11-78,19-128
			c8-49,31-202,51-340c20-137,39-270,43-295l6-45h73h73l-5,30c-3,17-17,161-31,320c-14,160-30,340-35,401c-6,60-10,132-10,160v49
			l60,120c69,139,115,261,136,359l14,69l1,316v316l-16,255c-9,140-20,259-23,265l-7,11L3388.8,12339.6z M3462.8,12155.6
			c8-8,17-34,21-58c3-23,7-150,8-282l2-240l-82-9l-83-9l-14,12l-15,12l-6,52c-5,45,17,463,27,507c4,19,31,28,85,29l42,1
			L3462.8,12155.6z M3110.8,12149.6c33-15,66-67,78-125c6-27,13-131,17-231l6-182l-17-25l-16-25l-67-21l-67-20l-9,9
			c-11,11-97,562-90,575c3,4-1,12-8,17l-14,8l35,15C2999.8,12162.6,3077.8,12165.6,3110.8,12149.6z M2828.8,12088.6
			c11-18,26-64,35-103c15-73,42-318,47-440l3-70h-80h-80l-12,65c-6,36-28,166-47,290c-20,124-39,235-41,247l-5,22l14-5
			c8-3,25,1,38,10l22,16h43h43L2828.8,12088.6z"/>
		<path class="st3" d="M5298.8,10085.6c-22-59-69-204-73-232l-6-32l75-70c42-39,80-71,86-71h10l-6,23c-4,12-12,49-18,81l-11,60
			l11,91c7,51,18,110,26,133l15,41l-51-2l-50-2L5298.8,10085.6z"/>
		<path class="st3" d="M10208.8,9884.6c-58-8-120-17-137-21l-32-8l8-14l9-14l119-9c109-7,202-18,296-34l38-7l-7,29
			c-3,16-12,38-19,49l-13,21l-71,12c-39,6-75,12-79,11S10266.8,9892.6,10208.8,9884.6z"/>
		<path class="st3" d="M5526.8,9755.6c-4-22-17-58-28-79c-11-22-19-41-17-42c1-1,14-5,28-9l26-6l4,13c2,7,2,47-1,88l-5,75
			L5526.8,9755.6z"/>
		<path class="st3" d="M3428.8,9161.6l-43-89l6-58c3-33,20-178,37-324c16-146,37-330,46-410s21-190,28-245l12-100l17,49l17,50v140
			c0,184-27,617-60,965c-5,57-11,106-13,107C3473.8,9248.6,3452.8,9210.6,3428.8,9161.6z"/>
		<path class="st3" d="M10121.8,8938.6c4-62,7-276,7-475v-361l30-11l30-10l15,23c9,13,20,39,25,57c13,43,34,191,56,384l16,150
			l-86,178c-48,97-90,177-93,177S10118.8,8999.6,10121.8,8938.6z"/>
		<path class="st3" d="M5863.8,5949.6c-633-33-1077-79-1645-170c-742-119-1456-310-2035-546c-446-181-813-385-1115-619
			c-233-181-441-417-548-623c-59-114-99-233-118-356c-17-115-17-167,1-289c33-219,134-431,305-641c245-300,630-584,1136-839
			c176-88,261-126,444-201c622-252,1320-444,2115-580c484-83,991-142,1505-175c756-48,1625-37,2355,31c977,90,1866,270,2640,535
			c154,52,481,183,616,245c167,78,362,179,467,243c289,175,437,289,628,480l131,132l73,105c71,102,152,256,184,353
			c10,28,24,84,32,125l15,76v118c0,174-30,302-111,472c-179,377-580,742-1165,1062c-461,253-1088,491-1730,658
			c-256,66-643,151-872,191c-46,8-122,21-170,29c-93,17-127,22-348,53c-462,67-894,106-1440,132
			C6974.8,5961.6,6087.8,5961.6,5863.8,5949.6z M7213.8,5590.6c400-18,720-45,1125-96c443-56,894-138,1285-235
			c449-110,852-238,1195-379c158-65,165-68,345-155c525-251,921-554,1135-866c68-99,118-201,152-311l22-73v-125v-125l-18-65
			c-50-187-177-383-367-565c-108-104-156-143-292-238c-151-106-301-195-487-288c-412-206-862-366-1425-508c-245-62-380-90-660-141
			c-583-104-983-149-1655-185l-275-15h-400c-576,0-1075,27-1605,85c-125,14-167,20-350,45c-36,5-164,26-285,45
			c-810,131-1558,340-2175,607c-127,55-406,195-516,259c-320,184-619,430-778,639c-97,126-167,265-203,402l-16,63l-1,115v115l23,80
			c30,107,87,221,166,331l66,92l122,119c245,239,552,436,987,633c225,102,587,233,910,328c134,40,381,103,555,141
			c159,35,538,108,650,125c262,40,593,81,800,100c366,34,608,48,975,55C6613.8,5606.6,6895.8,5604.6,7213.8,5590.6z"/>
	</g>
</g>
<g id="Capa_2_00000132087857396871852150000004085026183197891982_">
	<g transform="translate(0.000000,1341.000000) scale(0.100000,-0.100000)">
		<path class="st4" d="M3496.8,12475.6c-46-13-240-52-565-114c-162-31-333-64-380-73l-85-18v-419l1-420l17-104l17-104l32-71
			c38-81,113-178,224-290c120-120,310-299,346-326c26-19,49-44,52-55s6-47,6-80s4-107,10-165c19-204,40-489,40-537v-49l-97-38
			c-139-54-383-174-488-241c-280-177-496-389-691-680c-205-306-318-557-379-840c-33-155-49-298-43-391l5-79l17-37l17-36l40-26
			c21-14,47-26,56-26c10,0,65,27,122,60l103,60l-7-17c-22-56-49-141-75-238l-29-110l-12-147l-11-148l11-147c13-159,37-295,70-387
			c20-57,64-134,99-173c37-41,153-133,176-139c13-3,32-1,43,5c10,5,43,46,73,90s57,80,60,81c4,0,12-17,19-37c8-21,34-67,59-103
			c49-68,171-197,235-246l38-29l-143-49c-501-171-977-399-1338-639c-72-49-259-190-323-245c-60-52-215-208-269-272
			c-31-36-88-114-128-175c-120-181-194-356-227-540l-17-90v-125v-125l17-90c22-123,58-229,122-360c68-138,152-266,252-381
			c180-207,392-388,664-567c196-128,324-201,567-320c377-186,775-337,1267-480c245-72,418-116,690-177c278-61,425-90,695-134
			c565-92,1031-141,1670-178l215-12h560h560l210,12c341,20,601,41,845,68c1152,126,2155,368,2965,716c133,57,454,214,522,254
			c17,10,62,37,100,58c146,84,403,264,512,359c94,82,221,210,289,292c139,166,253,361,312,535c12,36,30,109,41,163l19,98v133v134
			l-16,82c-33,175-111,367-214,525c-97,149-265,342-400,460c-264,231-547,419-916,605c-488,247-1113,471-1746,626
			c-87,22-158,42-158,45c0,4,13,9,28,12c16,3,56,26,89,51l60,46l53,75c28,42,69,105,90,141l38,65l7-33c3-18,11-58,16-88
			c6-30,13-65,15-77s13-31,25-42l20-19l59-11l59-12l43,12c24,6,63,21,88,34c43,22,198,165,272,251l35,41l8-151c4-83,12-198,19-256
			l12-106l27-47c33-56,75-89,142-113l51-17l24,6c31,9,263,233,317,308c57,78,101,168,124,257l21,77l5,188c3,103,8,185,11,183
			c2-3,32-74,66-158l62-153l29-14l28-14l26,9l26,9l62,84l63,84l26,81l25,81l6,88l6,89l26-34c14-18,40-47,57-64l32-31l44-11l43-11
			l42,20l42,20l30,47c43,68,109,239,144,372l30,115l-1,165v165l-22,99c-12,55-34,140-50,190c-29,96-106,293-160,411
			c-87,189-105,226-153,305c-56,94-61,101-167,245l-74,100l-151,151l-150,150l-130,101c-71,55-159,120-195,145
			c-177,121-417,242-586,294l-85,25l5,17c2,9,7,34,11,54l6,38l-11,41c-11,41-42,79-88,109l-23,15l36,80c78,168,329,734,365,820
			c86,207,156,441,171,575l12,102l-11,103l-11,103l-31,83c-34,93-96,195-146,238c-53,47-116,80-201,105l-80,23l-48,33l-49,34l-51,4
			l-52,4l-44-22c-24-13-57-32-72-42c-42-30-174-185-211-247c-78-134-147-333-172-496c-29-190-12-378,72-793c15-78,46-208,126-535
			c27-114,48-211,45-214s-39-14-79-25s-78-24-85-30s-13-21-13-34v-23l25-24l26-23l-88,4l-88,4l-22-21l-23-22v-25v-25l158-312
			l159-312l-9-84l-8-84l-35-52c-67-101-204-247-310-330c-91-72-176-117-255-136l-55-14h-210h-210l-130,23c-71,13-146,27-165,32
			s-145,37-280,71c-135,33-246,62-248,64c-1,1,2,22,7,46c6,24,11,60,11,80v37l-18,22l-18,23l-155,15c-85,9-155,19-157,24
			c-2,4-10,8-19,8h-14l5,18c21,67,69,284,81,364c8,54,15,154,15,223v124l-19,83c-35,149-97,296-205,486c-20,35-36,65-36,67
			c0,1,10,0,23-2l23-5l13,16l13,16l-4,74l-3,75l-30,43c-45,62-146,144-279,222c-64,37-116,70-116,72s26,17,58,33c31,16,66,39,77,51
			l20,22l-1,40l-1,40l-37,37c-50,51-124,86-235,111l-94,21l-126,6l-126,5l-105-10c-118-13-290-45-365-69c-65-21-175-74-175-85
			c0-12,16-10,116,12l89,20h184c176,0,280-7,436-31c77-12,176-37,188-48c4-4-29-26-73-50c-44-23-85-51-90-61c-13-25-12-61,3-81
			c7-9,98-58,202-108s212-106,240-123c82-52,142-106,154-138l10-30h-27c-15,0-56,5-91,10c-35,6-65,9-68,6c-2-2,29-15,69-28l73-25
			l23-79c13-43,39-128,58-189c45-146,62-256,73-460l9-170l-8-110c-9-116-41-313-90-555c-34-170-34-169-95-325
			c-120-310-258-712-314-920c-23-82-48-163-55-180c-22-47-36-173-36-326v-139h15c8,0,29,24,45,53c17,28,48,79,68,112l38,60l12,70
			c6,39,17,104,23,145c14,99,54,312,81,425c11,50,53,212,93,360c40,149,81,301,91,339c10,39,43,120,74,180c31,61,62,137,70,169
			l13,58l46-7c90-13,323-53,326-56c2-2-30-102-70-223c-143-425-269-848-334-1115c-51-211-69-318-82-491l-12-167l6-158
			c3-88,13-217,21-288c9-71,14-131,12-133s-133,4-292,13l-289,17h-555l-555,1l-205-12c-113-7-270-17-350-23c-234-16-655-56-677-64
			c-7-2-15,0-18,5c-3,4-1,41,4,82c5,40,15,123,21,183c7,61,25,184,42,275c16,91,42,253,58,360s54,317,86,465c31,149,59,285,62,304
			l4,33l32-7c17-3,46-9,64-12l33-6l-5-11c-3-6-18-45-35-86l-29-75l-13-103l-13-102l12-104l11-103l22-58l22-58l39-43l40-43l61-31
			c33-16,68-30,77-30c23,0,140,40,170,58c14,9,35,24,46,34l22,19l41-85c49-101,168-263,246-334c30-28,81-63,112-78l57-28l63-4l64-4
			l46,17l46,18l38,39c21,22,44,52,51,68l12,29l46-47c58-61,100-93,176-131l61-31h77h76l46,22l46,21l30,41c38,52,75,125,100,196
			c23,66,98,339,98,357c0,7-4,13-8,13c-8,0-41-57-132-225c-41-75-92-154-116-181c-33-35-112-84-137-84c-14,0-40,6-59,14
			c-51,22-149,98-212,167c-57,61-212,287-208,302c1,5-2,5-8,2l-11-7l6-31c4-18,16-63,27-100l20-68l-6-33c-7-38-46-115-81-162l-24-31
			l-28-6l-28-5l-53,26l-53,26l-112,116l-112,116l-62,105c-35,57-85,156-113,218c-27,63-54,119-60,125l-10,10v-29c0-34,18-162,26-187
			l5-17l-47-35l-48-34l-54-11l-53-11l-34,23c-19,12-43,39-55,59c-25,45-50,168-50,247c0,62,24,241,41,306c18,66,97,303,110,327
			l12,23l-23-20c-12-11-41-45-63-75s-45-58-50-62c-15-10-77,3-119,24c-21,10-46,30-55,45l-18,27l2,66l1,65l27,80
			c15,44,39,100,53,125c34,59,101,147,145,188l34,33l49,8c27,5,43,9,36,10c-7,0-11,5-8,9c2,4-25,8-62,7l-67-1l-320-98
			c-353-108-600-169-745-185c-148-16-378-25-453-17l-67,8l-4,21c-3,12-9,74-16,137c-6,63-15,149-20,190c-6,41-19,149-30,240
			c-12,91-31,242-44,335l-23,170l8,23c5,13,9,46,9,74v51l-24,41l-24,41l-26,185c-54,380-85,584-107,715l-11,65l77,82
			c95,103,177,217,216,303c16,36,39,102,50,148l20,82l6,125l6,125l-12,105c-38,338-78,608-109,725c-10,39-32,97-48,130l-29,60l-15,2
			C3533.8,12483.6,3513.8,12480.6,3496.8,12475.6z M3526.8,12334.6c3-7,11-123,20-258l15-245v-311v-312l-14-68
			c-21-98-67-220-136-359l-60-120v-59c0-33,4-110,10-170c5-61,21-241,35-401c14-159,27-299,30-310l4-20l-62,1h-62l-7,45
			c-38,259-93,632-102,706l-13,91l-46,59c-89,112-291,389-328,448c-20,33-57,98-82,145l-46,85l-16,135c-9,74-23,162-32,195
			c-8,33-37,166-64,295s-53,252-58,272l-9,37l37,5c20,4,155,22,301,41c369,49,413,55,515,70c50,7,107,13,128,14l38,1L3526.8,12334.6
			z M10450.8,12160.6c12-15,26-44,33-66l12-40l-13-226c-6-125-18-299-26-387s-19-218-25-290c-5-71-21-254-35-405
			c-44-492-55-623-55-667v-43h-27c-16-1-55-7-88-15s-63-11-66-7c-4,4-16,75-28,157c-12,83-30,209-41,280c-11,72-24,164-30,205
			c-5,41-19,138-31,215l-22,140l-1,220v220l17,83c21,103,66,240,111,335c18,40,57,105,87,144c54,73,77,92,59,51
			c-20-46-80-282-99-391c-11-61-25-160-31-219l-12-108l12-162c15-225,48-532,98-918l6-45l7,25c4,14,8,180,8,370c1,190,6,406,11,480
			c6,74,14,266,20,425c5,160,14,319,19,355c6,36,15,112,21,169l10,105l17,18c9,10,26,18,39,18h23L10450.8,12160.6z M10769.8,12075.6
			c59-58,95-113,118-179l19-55l-1-145v-145l-43-165c-71-277-111-395-266-785c-61-154-150-396-177-482l-22-73h-13c-7,0-13,2-13,6
			c0,3,27,193,60,422c112,786,155,1111,201,1514c6,59,9,123,6,142l-6,36l47-24C10705.8,12128.6,10746.8,12098.6,10769.8,12075.6z
			 M10416.8,9879.6l46-6l14-21c8-11,15-29,15-39v-19l-17,6c-23,9-258,36-323,37c-30,0-64,4-75,9l-20,8l35,6c84,16,237,34,258,30
			C10361.8,9888.6,10391.8,9883.6,10416.8,9879.6z M10281.8,9660.6c207-23,359-66,540-153c186-89,264-137,449-275
			c205-152,419-354,544-516c32-41,90-122,129-180l71-105l93-190c184-378,264-612,279-820l7-90l-27-100c-68-254-123-391-171-422
			l-21-13l-34,23l-34,22l-57,85l-57,85l-11,110c-19,185-41,338-55,370l-12,30l1-40c2-77-26-501-39-600c-19-141-54-292-78-344l-21-44
			l-15,23c-9,12-55,89-102,169c-131,221-249,415-261,426l-10,10l7-40c3-22,38-120,77-218l71-178l-22-122c-31-168-59-279-83-335
			c-12-26-43-87-71-137l-50-90l-105-103c-58-57-116-110-128-119l-23-14l-20,10l-20,11l-21,57c-26,71-110,504-110,571
			c0,38-14,49-32,24s-241-202-308-244c-80-51-159-90-177-86l-16,3l-29,110c-15,61-32,135-37,165s-13,65-18,77l-8,22l-50-61
			c-189-232-288-335-389-409l-39-29h-38h-38l-63,74l-63,74l-56,108c-31,60-58,120-62,133l-6,24l-67-64c-37-35-115-112-174-171
			c-59-60-115-108-123-108c-37,0-338,193-418,267l-47,44l-45-28c-24-15-70-45-100-67l-56-38l-47-75l-46-74l-41,5c-23,3-62,8-87,11
			c-107,13-359,35-400,35h-45l2,162c3,221,19,400,54,603c16,94,36,220,45,280c32,239,96,568,174,890c22,94,59,251,82,350
			s42,181,43,182c0,1,37-11,81-28c43-16,99-37,124-46c25-8,104-37,175-63c319-118,455-156,670-190l70-11l94,11
			c172,19,241,45,379,139l87,60l99,100l98,101l-6-88c-9-107-33-346-47-466l-11-89l19-25l19-26l70-24l69-24l53,4l53,5l35,34l35,33
			l15,51l16,50l7,212l6,213l39-98c87-216,136-381,157-522l12-82l-5-101l-5-102l-21-48c-12-26-39-73-60-105c-21-31-51-77-66-102
			l-27-45l40,45c74,82,149,194,168,250l18,55v145l-1,145l-18,85c-64,303-148,540-352,987c-182,399-284,628-284,636v9l93-7
			C10114.8,9677.6,10212.8,9668.6,10281.8,9660.6z M3415.8,9540.6l16-6v-23c0-28-86-231-320-760c-85-193-241-573-285-697
			c-61-169-94-295-101-377l-7-79l22-72c24-78,38-90,22-19c-21,91-10,195,34,324c28,80,137,325,265,593l36,74l46-61
			c47-60,132-135,167-146l19-6l6-62c3-34,10-116,16-182s15-154,20-195l9-75l21-17c12-10,36-18,52-18h31l68,45l69,45l25,38
			c13,20,32,57,40,82l17,45l1,77l2,77l120-6l120-5l90,17c249,47,377,87,745,235c162,65,319,128,347,139l53,21l-83-83
			c-45-45-99-110-120-145l-38-62l-16-78l-16-77l11-82c6-45,17-95,25-110l15-27l-15-41c-7-22-43-141-78-265c-71-250-109-403-167-675
			l-13-60v-352v-352l-20,18c-11,9-75,68-142,129l-122,112h-21c-11,0-30-10-41-21l-21-21l8-107c5-58,8-130,7-160l-1-54l-14-8
			c-7-5-27-9-43-9h-30l-160,237c-88,131-168,245-177,255c-23,23-61,23-83,1l-17-17l5-55c16-161,48-439,52-462l6-26l-43-11
			c-24-5-84-18-135-27l-92-18l-50,40c-27,22-99,87-159,144l-109,104l-11,113l-12,113l-18,42c-11,23-28,50-39,59l-20,18l-12-158
			c-7-86-19-195-27-242c-7-47-14-144-14-215v-131l-190-53c-105-29-193-51-197-48c-3,4-30,28-60,54c-67,59-152,163-205,251
			c-22,37-46,74-53,82s-29,45-48,81l-35,66l15,82c7,45,13,117,11,159l-3,77l-29-110l-30-110l-42-85l-43-86l-53-59l-54-58l-43,38
			c-51,46-82,98-109,185c-32,99-50,201-63,356l-11,141l16,191c17,200,43,364,77,491c11,42,36,137,55,211l35,135l22,25l22,25l-34-30
			l-34-30l-67-140c-37-77-70-149-74-161l-6-21l-106-41c-58-23-120-42-139-42h-34l-16,52c-26,90-19,178,35,380c39,148,92,280,191,469
			c175,336,409,628,667,832c210,166,472,307,797,426C3383.8,9547.6,3391.8,9549.6,3415.8,9540.6z M3484.8,9109.6c4-48,12-142,17-208
			c34-404,49-833,31-880l-8-20l-6,35c-4,19-11,80-17,135c-6,55-15,138-20,185c-28,245-70,612-76,658l-7,54l33,68c18,38,36,67,40,65
			S3481.8,9157.6,3484.8,9109.6z M10216.8,8850.6l76-157l-21-176c-34-292-46-358-73-395l-14-18l-21,6l-22,7v377c0,207-3,407-7,445
			c-3,37-3,67,0,67S10174.8,8936.6,10216.8,8850.6z M3290.8,8689.6c7-81,15-161,18-178l6-30l-18,15c-21,17-86,103-105,139l-12,24
			l43,89c24,48,46,88,50,88C3275.8,8836.6,3283.8,8770.6,3290.8,8689.6z M4011.8,6113.6c40-65,70-121,66-124c-5-5-189-43-192-40
			c-1,1,2,29,7,62c4,33,8,90,8,126c1,37,4,81,7,98l7,32l12-18C3933.8,6239.6,3971.8,6178.6,4011.8,6113.6z M8701.8,6185.6
			c24-33,72-83,107-111s62-52,60-54s-64,5-138,16c-74,10-162,22-197,26c-34,4-65,10-67,14c-3,4,6,11,20,14c32,8,93,63,130,116
			c15,22,31,40,34,40C8654.8,6246.6,8676.8,6219.6,8701.8,6185.6z M9426.8,6204.6c10-55,79-189,138-265l46-60l-92,19
			c-51,10-139,28-196,38c-57,11-106,22-109,24c-4,4,17,35,148,224c24,34,47,62,51,62S9422.8,6227.6,9426.8,6204.6z M4598.8,6113.6
			c29-17,53-35,53-39c0-5-10-8-22-9c-13,0-48-4-79-8l-57-7l-6,51c-3,27-6,58-6,68v19l33-21
			C4531.8,6155.6,4569.8,6131.6,4598.8,6113.6z M3390.8,5946.6l72-85l-110-26c-60-15-118-30-129-33l-19-7l33,83c18,45,38,104,45,131
			l11,49l13-14C3313.8,6037.6,3351.8,5993.6,3390.8,5946.6z M7206.8,5946.6c546-26,978-65,1440-132c221-31,255-36,348-53
			c48-8,124-21,170-29c229-40,616-125,872-191c289-75,605-175,890-281c780-289,1395-661,1743-1056c199-225,312-439,361-677
			c7-30,12-105,12-165l-1-111l-14-76c-8-41-22-97-32-125c-32-97-113-251-184-353l-73-105l-131-132c-191-191-339-305-628-480
			c-105-64-300-165-467-243c-135-62-462-193-616-245c-713-244-1500-411-2398-511c-812-89-1733-109-2577-55
			c-879,57-1736,189-2495,385c-131,34-443,125-575,169c-167,54-383,133-550,201c-790,321-1381,734-1678,1171c-63,93-127,219-161,321
			l-32,93l-16,112l-16,112l13,105c25,209,105,399,253,597c428,577,1378,1078,2645,1394c427,106,772,172,1287,244
			c364,52,792,90,1280,115C6100.8,5957.6,6967.8,5957.6,7206.8,5946.6z"/>
		<path class="st4" d="M3334.8,12179.6l-23-4v-16v-15l18,8c9,4,33,9,52,11l35,4l19-13l18-14l5-48c9-78-27-409-49-453l-11-23h-28h-27
			l-6,28c-3,15-9,123-13,240c-3,116-9,212-13,212s-12-102-18-227l-12-228l8-34c4-19,15-39,23-44l16-10l89,9l89,9l-2,250
			c-1,138-5,269-8,292c-4,24-13,50-21,58l-15,15l-52-1C3379.8,12184.6,3346.8,12181.6,3334.8,12179.6z"/>
		<path class="st4" d="M2952.8,12161.6l-33-15l7-27c4-16,26-153,50-306c23-153,47-283,53-289l11-11l68,18l67,18l24,25l25,24l-6,196
			c-3,109-11,219-17,246c-12,58-45,110-78,125C3090.8,12181.6,2992.8,12178.6,2952.8,12161.6z M3118.8,12120.6l26-26l-5-236l-6-236
			l-26-23c-15-13-30-23-34-23s-32,109-61,243c-64,287-70,315-63,322c3,3,36,5,74,5h69L3118.8,12120.6z"/>
		<path class="st4" d="M2704.8,12129.6c-7-2-13-9-13-14v-10l48,7l47,6l17-19l17-18l11-180c6-99,15-217,21-261c5-45,7-88,3-97
			c-5-15-52-33-61-23c-11,10-131,569-126,582l5,14h-16c-9,0-16-3-16-7c0-8,76-475,93-568l12-70h90h90l-3,75c-4,119-32,389-48,460
			c-8,36-23,80-34,98l-20,32l-52-1C2740.8,12135.6,2710.8,12132.6,2704.8,12129.6z"/>
		<path class="st4" d="M10385.8,7314.6l-7-11l11,7c12,7,16,16,8,16C10394.8,7326.6,10389.8,7321.6,10385.8,7314.6z"/>
		<path class="st4" d="M6076.8,12363.6c-16-8-50-23-76-35c-25-11-72-41-105-65c-182-135-394-428-440-608l-16-63l6-64
			c7-70,41-168,81-237c26-43,118-135,136-135c5,0-6-24-24-52l-32-53v-66v-65l-75-64c-120-101-258-240-302-303
			c-55-80-112-205-144-312l-26-90l6-102l7-101l-20-51c-10-28-49-102-84-164c-36-61-74-132-84-157l-18-45v-105v-105l35-70l35-70
			l206-210l206-210l25-45c14-25,29-58,33-75c14-55,17-6,5,66l-12,72l-53,78c-30,43-89,121-132,175c-124,154-132,165-166,234l-32,65
			v85l1,85l18,35c10,19,39,69,64,110s57,101,72,132l27,57l6-59l5-59l24-43l23-43l55-27c30-14,90-32,132-39l78-13l27,10
			c14,5,28,14,30,20s-8,16-22,24c-14,7-23,16-20,19s-3,10-13,15l-19,11l13,30l13,30l1-33v-34l13,4l12,5l17,94c9,52,20,173,23,269
			l7,175l-10,49l-10,49l26-33c14-18,44-41,66-51l41-19h56c94,0,133,24,230,140c49,57,129,177,129,191c0,5-51-28-112-73
			c-62-44-138-92-168-105l-55-25l-34,6c-19,3-40,11-47,18l-13,13l33,55c18,30,47,82,65,115s41,69,52,81l20,21l-93,6
			c-51,4-107,9-125,13l-32,6l28,42c16,22,49,60,73,83l43,42l39-19c54-27,148-62,153-57c2,3-31,37-74,77s-95,95-115,122l-38,50l16,30
			l16,30l35-5c19-3,93-33,164-66c70-34,131-61,134-61s5,6,5,14c0,17-178,188-233,223l-42,27l-49,6l-49,5l-27,95
			c-15,52-33,145-40,206l-12,110l16,80l16,79l40,80c22,44,64,109,93,145l52,65l70,47c39,26,101,59,138,73l68,27l25-6
			c79-20,304-326,388-528c20-49,78-112,120-132l34-16h54h53l60,29c33,15,92,54,130,86c81,66,133,95,171,95c41,0,111-38,139-74
			c35-46,55-109,62-196c7-96,34-167,82-222c75-85,194-128,356-128c98,0,160-13,168-34c7-19-3-57-63-229l-51-148l-5-82l-6-82l24-45
			c28-55,84-98,174-134c38-16,97-41,130-57l62-29l35-39l35-39l7-51c21-151-70-443-267-861c-69-147-82-179-74-187c3-3,8-4,10-2
			c9,10,105,164,171,274c150,250,240,443,287,615l22,85l1,85v85l-24,53l-24,53l-60,54l-59,54l-87,42c-113,56-151,81-151,99
			c0,23,33,123,84,251c25,63,49,141,54,172l9,57l-8,49c-9,62-22,86-67,134l-36,37l-56,21l-55,21l-135,8l-135,7l-35,15
			c-19,9-43,25-54,36l-18,21l-9,83c-12,108-40,202-79,260c-42,63-119,131-184,163c-29,14-79,30-113,35l-60,10l-53-10
			c-77-15-154-53-229-114c-72-58-120-91-125-85c-1,2-19,38-40,79c-50,103-181,276-296,390l-95,95l-50,25l-50,24l-65,3l-65,3
			L6076.8,12363.6z M5651.8,10839.6c-14-9-53-44-87-77l-63-59l-9-32c-5-18-7-43-4-57l4-24l32-21c18-12,50-25,72-28
			c37-6,122,4,170,20c20,7-74-85-147-146l-38-31v18c0,10-7,26-17,36l-16,18h-56c-31,0-73-5-95-11l-38-10l-42-43l-43-42l-19-63
			c-26-88-30-59-5,34c36,131,111,264,241,431c48,61,95,123,105,138l18,27l31-30l31-31L5651.8,10839.6z M5476.8,10279.6
			c3-21,9-48,12-61l5-22l-63-29c-35-16-76-32-91-35l-28-6l10,25c17,45,42,89,72,128l30,37h23h23L5476.8,10279.6z M5228.8,10184.6
			c-3-7-5-2-5,12s2,19,5,13C5230.8,10202.6,5230.8,10190.6,5228.8,10184.6z M5375.8,10047.6c-7-29-16-92-19-140l-6-86l9-50
			c6-27,9-52,7-54c-3-2-31,23-65,54l-60,58v25c0,13,17,73,37,133l37,108l35,3c20,2,37,3,38,3S5383.8,10077.6,5375.8,10047.6z"/>
		<path class="st4" d="M7268.8,10241.6c-30-75-50-105-85-124l-21-11l-46,11c-25,6-45,15-45,18c0,15-78,50-134,60
			c-86,16-128,14-190-9l-54-21l-36-39c-43-48-94-148-130-255c-33-97-41-149-32-208l7-45l17,5c9,3,35,32,57,66
			c84,130,215,244,330,286l59,22l101,3l102,4l37,17c20,10,45,29,55,44c25,35,43,124,39,191l-3,55L7268.8,10241.6z"/>
		<path class="st4" d="M5713.8,9596.6c-94-43-177-125-394-394c-32-39-58-76-58-82c0-14,84-59,155-84c30-10,102-48,158-84
			c57-35,129-77,160-92c31-16,57-31,57-34s-16-16-35-30c-83-60-143-172-152-287l-6-62l17-25c9-14,30-33,48-42l32-16l55,5
			c31,4,74,12,96,20l39,14l37-48l38-47l45-17l44-17l36,12c46,15,89,65,116,137l23,58l1,65l1,65l-23,46c-12,25-53,79-92,121l-70,76
			l19,43c11,24,22,61,26,81l7,37l17,6c26,8,86,70,149,154c58,77,125,201,138,256l7,30l-128-133l-128-133l-23,88
			c-40,156-79,222-158,267c-47,28-159,66-190,66C5765.8,9616.6,5737.8,9607.6,5713.8,9596.6z M5864.8,9473.6c80-82,123-143,163-235
			l38-83l-15-10c-8-5-39-17-69-27l-55-17h-90c-92,0-398,21-447,31l-28,6l143,116c78,64,176,151,217,194s78,78,83,78
			C5808.8,9526.6,5835.8,9502.6,5864.8,9473.6z M5959.8,8939.6l-23-12h-70h-70l-30,13l-30,13l123-1h122L5959.8,8939.6z
			 M6064.8,8723.6l47-92v-45v-45l-25-52c-13-29-28-53-33-53s-31,31-58,69l-49,70l-27,12l-28,11l-25-6l-26-7l-17-29l-17-30l-29-10
			c-16-5-38-10-49-10h-20l7,55c8,71,38,150,77,204l32,42l16-7c9-3,34-8,56-11l40-5l35,15c19,9,38,16,41,16
			C6015.8,8816.6,6038.8,8774.6,6064.8,8723.6z"/>
	</g>
	<rect x="1131" y="1185.9" class="st5" width="4" height="1"/>
	<g>
		<path class="st4" d="M331,968.4c-1.5,4.5-3.3,7.7-5.3,9.8s-7.2,3.8-15.6,5.4c-8.3,1.5-17.1,2.3-26.4,2.3c-14.5,0-21.8-5-21.8-14.9
			c0-2.8,0.8-8,2.3-15.8l13.3-67.1c0.8-3.9,1.2-6.7,1.2-8.3c0-1.5-0.5-3-1.6-4.3c6.1-2.3,10.3-3.4,12.6-3.4c2.8,0,4.2,1.6,4.2,4.9
			c0,0.8-0.8,4.8-2.3,12l-11.9,60c-1.7,8.6-2.6,14.6-2.6,18c0,5.7,6.3,8.5,18.9,8.5C307.5,975.3,319.1,973,331,968.4z"/>
		<path class="st4" d="M402.3,941.5c-5.8,12.1-13,22.3-21.6,30.8c-8.6,8.5-16,12.7-22.3,12.7c-4.8,0-8.7-2.2-11.6-6.5
			c-2.9-4.3-4.3-10-4.3-17.2c0-14.3,4.3-26.8,13-37.7c8.6-10.8,18.6-16.3,30-16.3c6.9,0,14.3,2.1,22.4,6.4c1.2-4.2,6-6.4,14.5-6.4
			c0.5,0,1.4,0,2.7,0.1c-2.6,4-4.6,9.4-5.9,16.3l-1.2,5.8c-1.3,6.5-2,14-2,22.7c0,10,2.3,15,7,15c4.9,0,11.7-4.1,20.2-12.3
			c8.5-8.2,16.9-18.7,25.2-31.4l5.3,3.7c-8.4,15-18.1,27.6-28.9,37.6c-10.8,10-20.2,15.1-28,15.1c-9.8,0-14.8-8.2-14.8-24.6
			C401.9,951.9,402,947.3,402.3,941.5z M405.5,925.2c-9.6-6.2-17.5-9.4-23.9-9.4c-6.9,0-12.8,4.2-17.9,12.5
			c-5,8.4-7.5,18.3-7.5,29.8c0,9.2,3,13.8,9,13.8c6.5,0,19-14.3,37.4-42.9C403,928.6,403.9,927.4,405.5,925.2z"/>
		<path class="st4" d="M588.7,927.6l-10.8,40.1c-4.4,16.4-7.8,25.9-10,28.6c-2.3,2.7-8.3,4.4-18.2,5c5-6.7,10.3-17.4,15.9-32
			c-9.8,9.3-19.8,13.9-30.2,13.9c-10.5,0-19.2-3.5-26-10.6c-6.9-7-10.3-16-10.3-26.8c0-17.3,7.4-32.7,22.1-46.2
			c14.7-13.5,31.6-20.2,50.6-20.2c12.6,0,18.9,2.5,18.9,7.6c0,2.1-2.2,5.7-6.6,10.7c-0.5,0.5-1.1,1.3-1.9,2.3
			c-3.2-7.6-9.7-11.3-19.6-11.3c-13.2,0-24.7,5.3-34.5,15.9c-9.7,10.6-14.6,23.1-14.6,37.5c0,9.7,2.5,17.4,7.4,23.2
			c4.9,5.8,11.5,8.7,19.6,8.7c7.3,0,13.7-2.8,19.2-8.3c5.5-5.5,9.1-12.9,10.9-22.2l0.5-2.9c-14.1,0-25.3,1.9-33.8,5.8
			c1.7-5.8,3.8-9.5,6.2-11c2.4-1.5,8-2.7,16.7-3.5l8.5-0.7C575.7,930.6,582.3,929.4,588.7,927.6z"/>
		<path class="st4" d="M660.8,941.5c-5.8,12.1-13,22.3-21.6,30.8c-8.6,8.5-16,12.7-22.3,12.7c-4.8,0-8.7-2.2-11.6-6.5
			c-2.9-4.3-4.3-10-4.3-17.2c0-14.3,4.3-26.8,13-37.7c8.6-10.8,18.6-16.3,30-16.3c6.9,0,14.3,2.1,22.4,6.4c1.2-4.2,6-6.4,14.5-6.4
			c0.5,0,1.4,0,2.7,0.1c-2.6,4-4.6,9.4-5.9,16.3l-1.2,5.8c-1.3,6.5-2,14-2,22.7c0,10,2.3,15,7,15c4.9,0,11.7-4.1,20.2-12.3
			c8.5-8.2,16.9-18.7,25.2-31.4l5.3,3.7c-8.4,15-18.1,27.6-28.9,37.6c-10.8,10-20.2,15.1-28,15.1c-9.8,0-14.8-8.2-14.8-24.6
			C660.4,951.9,660.5,947.3,660.8,941.5z M664,925.2c-9.6-6.2-17.5-9.4-23.9-9.4c-6.9,0-12.8,4.2-17.9,12.5
			c-5,8.4-7.5,18.3-7.5,29.8c0,9.2,3,13.8,9,13.8c6.5,0,19-14.3,37.4-42.9C661.4,928.6,662.4,927.4,664,925.2z"/>
		<path class="st4" d="M788.8,927.6c-9.4,17.9-18.9,32-28.4,42.1c-9.5,10.2-18,15.3-25.3,15.3c-5.3,0-9.6-2.1-12.9-6.2
			c-3.3-4.1-4.9-9.5-4.9-16.2c0-3.7,0.7-9,2.1-15.9l13.6-68.5c-1.8,0.3-3.3,0.4-4.6,0.4c-10.5,0-15.7-4.4-15.7-13.1V864
			c5.5,3.1,11.6,4.6,18.5,4.6c6.9,0,12.9-1.7,18-5.1l-15.9,82.2c-1.4,7.4-2.1,12.5-2.1,15.2c0,7.7,2.8,11.6,8.5,11.6
			c5.5,0,11-3.1,16.5-9.3c5.5-6.2,14.6-19.3,27.2-39.5L788.8,927.6z"/>
		<path class="st4" d="M845.6,927.6c-9.4,17.9-18.9,32-28.4,42.1c-9.5,10.2-18,15.3-25.3,15.3c-5.3,0-9.6-2.1-12.9-6.2
			c-3.3-4.1-4.9-9.5-4.9-16.2c0-3.7,0.7-9,2.1-15.9l13.6-68.5c-1.8,0.3-3.3,0.4-4.6,0.4c-10.5,0-15.7-4.4-15.7-13.1V864
			c5.5,3.1,11.6,4.6,18.5,4.6c6.9,0,12.9-1.7,18-5.1l-15.9,82.2c-1.4,7.4-2.1,12.5-2.1,15.2c0,7.7,2.8,11.6,8.5,11.6
			c5.5,0,11-3.1,16.5-9.3c5.5-6.2,14.6-19.3,27.2-39.5L845.6,927.6z"/>
		<path class="st4" d="M907.8,927.3c-10.3,18.1-20.7,32.2-31.2,42.4c-10.5,10.2-20,15.3-28.4,15.3c-5.1,0-9.2-1.7-12.3-5
			c-3.1-3.3-4.7-7.7-4.7-13.1c0-2.1,0.5-5.3,1.4-9.8l1.5-7.5c2.2-10.8,3.3-18.5,3.3-22.8c0-2.6-0.8-4.7-2.3-6.4
			c5.9-1.4,9.6-2,11.1-2c3.4,0,5.1,2.4,5.1,7.1c0,3.5-0.7,8.5-2,15.1l-2.7,13.3c-1.3,6.4-2,10.6-2,12.5c0,5.6,2.4,8.5,7.2,8.5
			c5.7,0,13.3-4.8,22.8-14.4c9.5-9.6,18.7-21.7,27.5-36.4L907.8,927.3z M846.9,892.9l1,0.1c3.1-0.1,7.4-1.7,13.2-4.6
			c5.7-2.9,10.2-5.9,13.4-9c-2,6.3-5.6,11.6-10.7,15.8c-7.7,6.5-13,9.7-15.7,9.7c-1.8,0-2.7-1.1-2.7-3.3
			C845.4,898.3,845.9,895.5,846.9,892.9z"/>
		<path class="st4" d="M911.5,958.7c16.2-34.2,30.7-51.3,43.6-51.3c10.1,0,15.1,10,15.1,30.1l0.1,8.3c0,9.6,0.5,16.2,1.5,19.9
			c1,3.7,2.8,5.5,5.4,5.5c3.9,0,8.4-3.1,13.4-9.4c5-6.2,13.1-18.8,24.4-37.7l5.7,3.3c-10,18.9-19,32.9-26.9,42.1s-15,13.7-21.3,13.7
			c-5.8,0-9.9-2.8-12.2-8.4c-2.3-5.6-3.5-15.3-3.5-29.1l-0.1-5.9c0-7.5-0.5-12.7-1.4-15.8c-1-3-2.6-4.5-5-4.5c-6,0-15.7,12-29.1,36
			c-3.3,5.9-5.4,9.7-6.4,11.3c-3.5,6.1-5.3,10.5-5.3,13.3c0,1.1,0.3,2.1,0.9,3.1c-2.6,1.1-4.9,1.6-6.7,1.6c-4.6,0-6.9-2.6-6.9-7.7
			c0-1.5,0.6-8,1.8-19.7l1.5-14.8c0.7-6.3,1-11.2,1-14.6c0-4.8-1.1-8.6-3.3-11.4c1-0.3,2.6-0.9,4.8-1.6c2.8-1,5.1-1.5,6.8-1.5
			c3.6,0,5.3,2.6,5.3,7.8c0,2.7-0.3,7.4-1,14.1c-0.1,1.5-0.3,2.8-0.4,4.2L911.5,958.7z"/>
		<path class="st4" d="M1060.3,941.5c-5.8,12.1-13,22.3-21.6,30.8c-8.6,8.5-16,12.7-22.3,12.7c-4.8,0-8.7-2.2-11.6-6.5
			c-2.9-4.3-4.3-10-4.3-17.2c0-14.3,4.3-26.8,13-37.7c8.6-10.8,18.6-16.3,30-16.3c6.9,0,14.3,2.1,22.4,6.4c1.2-4.2,6-6.4,14.5-6.4
			c0.5,0,1.4,0,2.7,0.1c-2.6,4-4.6,9.4-5.9,16.3l-1.2,5.8c-1.3,6.5-2,14-2,22.7c0,10,2.3,15,7,15c4.9,0,11.7-4.1,20.2-12.3
			c8.5-8.2,16.9-18.7,25.2-31.4l5.3,3.7c-8.4,15-18.1,27.6-28.9,37.6c-10.8,10-20.2,15.1-28,15.1c-9.8,0-14.8-8.2-14.8-24.6
			C1059.9,951.9,1060.1,947.3,1060.3,941.5z M1063.6,925.2c-9.6-6.2-17.5-9.4-23.9-9.4c-6.9,0-12.8,4.2-17.9,12.5
			c-5,8.4-7.5,18.3-7.5,29.8c0,9.2,3,13.8,9,13.8c6.5,0,19-14.3,37.4-42.9C1061,928.6,1061.9,927.4,1063.6,925.2z"/>
		<path class="st4" d="M325.4,1097.4l-6.1,30c-0.9,4.3-1.3,7.1-1.3,8.4c0,1.3,0.3,2.6,0.9,4.1c-4.7,2.3-8.9,3.5-12.6,3.5
			c-2.4,0-3.6-1-3.6-2.9c0-1,0.5-3.9,1.4-8.5l7.2-35.8c-11.5-2.6-17.3-6.4-17.3-11.5c0-1,0.2-2.4,0.7-4c4.9,4.1,10.9,7,17.9,8.8
			l4.7-23.6c0.8-3.9,1.2-6.6,1.2-8.3c0-1.6-0.5-3.1-1.6-4.4c6.1-2.3,10.3-3.4,12.6-3.4c2.8,0,4.2,1.6,4.2,4.9c0,0.8-0.7,4.8-2.2,12
			l-4.7,24.1c13.1,0,23.8-3.2,32.1-9.7c8.3-6.5,12.5-14.8,12.5-24.9c0-5.6-2.2-10-6.5-13.4c-4.4-3.4-10.1-5.1-17.3-5.1
			c-21.3,0-38.4,8.9-51.3,26.8c-1.1-2.8-1.6-5-1.6-6.6c0-6.9,6.2-13.3,18.5-19.2c12.3-5.9,25.7-8.9,40-8.9c21.8,0,32.7,8,32.7,24.1
			c0,11.7-5.7,21.9-17,30.7c-11.3,8.8-24.5,13.1-39.6,13.1L325.4,1097.4z"/>
		<path class="st4" d="M466.9,1082.9c0.1,1.1,0.2,2.1,0.2,2.9c0,13.2-4.5,24.7-13.4,34.5c-8.9,9.8-19.4,14.7-31.4,14.7
			c-9.2,0-16.6-2.9-22.4-8.8c-5.8-5.9-8.6-13.5-8.6-22.8c0-10.6,3.7-19.8,11.2-27.6s16.2-11.7,26.4-11.7c1.5,0,3.2,0.2,4.9,0.6
			c-1.1-2.1-1.7-3.8-1.7-5.2c0-2.2,0.8-4.3,2.3-6.3c11.1,0.9,20.4,6.6,27.8,17.1c7.6,5.2,15.4,7.7,23.7,7.7c5.3,0,11.1-1.8,17.3-5.4
			l3.4,5.8c-7.2,5.1-14.7,7.6-22.3,7.6C479.1,1086,473.3,1085,466.9,1082.9z M451.4,1077.1c-3.8-1.1-7.3-3-10.5-5.5
			c-2.3-0.5-4.3-0.7-5.8-0.8c-7.7,0-14.6,3.5-20.6,10.5c-6,7-9,14.9-9,23.9c0,6.5,1.8,11.8,5.4,16c3.6,4.2,8.3,6.3,14,6.3
			c7.7,0,14.3-3.9,19.9-11.7s8.3-17,8.3-27.8C453.1,1084.2,452.5,1080.6,451.4,1077.1z"/>
		<path class="st4" d="M510.2,1108.7c16.2-34.2,30.7-51.3,43.6-51.3c10.1,0,15.1,10,15.1,30.1l0.1,8.3c0,9.6,0.5,16.2,1.5,19.9
			c1,3.7,2.8,5.5,5.4,5.5c3.9,0,8.4-3.1,13.4-9.4c5-6.2,13.1-18.8,24.4-37.7l5.7,3.3c-10,18.9-19,32.9-26.9,42.1s-15,13.7-21.3,13.7
			c-5.8,0-9.9-2.8-12.2-8.4c-2.3-5.6-3.5-15.3-3.5-29.1l-0.1-5.9c0-7.5-0.5-12.7-1.4-15.8c-1-3-2.6-4.5-5-4.5c-6,0-15.7,12-29.1,36
			c-3.3,5.9-5.4,9.7-6.4,11.3c-3.5,6.1-5.3,10.5-5.3,13.3c0,1.1,0.3,2.1,0.9,3.1c-2.6,1.1-4.9,1.6-6.7,1.6c-4.6,0-6.9-2.6-6.9-7.7
			c0-1.5,0.6-8,1.8-19.7l1.5-14.8c0.7-6.3,1-11.2,1-14.6c0-4.8-1.1-8.6-3.3-11.4c1-0.3,2.6-0.9,4.8-1.6c2.8-1,5.1-1.5,6.8-1.5
			c3.6,0,5.3,2.6,5.3,7.8c0,2.7-0.3,7.4-1,14.1c-0.1,1.5-0.3,2.8-0.4,4.2L510.2,1108.7z"/>
		<path class="st4" d="M614.2,1104.8c0,13.3,5.7,20,17,20c9.8,0,20.6-4.7,32.4-14c11.8-9.3,22.4-21.6,31.9-36.8l5.8,3.2
			c-8.9,16.7-20.5,30.5-34.8,41.4c-14.3,10.9-27.8,16.4-40.6,16.4c-8.2,0-14.7-2.6-19.4-7.9c-4.8-5.3-7.1-12.5-7.1-21.7
			c0-13.2,4.3-24.5,13-33.9c8.6-9.4,19-14.1,31.2-14.1c5.9,0,10.6,1.5,14.1,4.4c3.5,3,5.3,6.9,5.3,11.9c0,8.2-4.9,15.4-14.7,21.7
			C638.3,1101.7,627,1104.8,614.2,1104.8z M614.7,1098.2c9.5-0.5,17.7-3.2,24.5-8.2c6.8-5,10.2-10.7,10.2-17.2
			c0-5.8-2.6-8.7-7.8-8.7c-6.2,0-11.9,3.3-17.2,10C619.3,1080.8,616,1088.8,614.7,1098.2z"/>
		<path class="st4" d="M740.1,1093.3c-7.1,12.8-14.5,23-22.3,30.5c-7.8,7.5-14.7,11.2-20.8,11.2c-4.9,0-8.8-2.1-11.6-6.4
			c-2.9-4.3-4.3-10-4.3-17.1c0-14.4,4.3-27,12.9-37.8c8.6-10.8,18.5-16.2,29.9-16.2c6.8,0,14.2,2.2,22.2,6.5l7.3-36.8
			c-4,0.8-7.3,1.2-10,1.2c-4,0-7-0.9-8.8-2.9c-1.9-1.9-3.4-5.5-4.5-10.7c3.3,2.2,8.3,3.3,15.1,3.3c8.4,0,16.6-1.5,24.4-4.6
			l-14.9,74.9c-1.7,8.4-2.5,15.5-2.5,21.4c0,7.8,2.2,11.8,6.7,11.8c4.4,0,11.7-5.1,21.8-15.4s18.7-21,25.5-32.2l5.6,3.6
			c-8.1,14.9-18.2,28.1-30.4,39.9c-12.1,11.7-21.8,17.6-29.1,17.6c-9.2,0-13.8-7.4-13.8-22.1C738.4,1106.7,739,1100.2,740.1,1093.3z
			 M743.7,1075.2c-9.5-6.2-17.4-9.4-23.7-9.4c-6.8,0-12.7,4.2-17.7,12.6c-5,8.4-7.5,18.3-7.5,29.7c0,9.2,3,13.8,9,13.8
			c6.5,0,18.9-14.3,37.3-42.9C741.5,1078.5,742.4,1077.2,743.7,1075.2z"/>
		<path class="st4" d="M866,1082.9c0.1,1.1,0.2,2.1,0.2,2.9c0,13.2-4.5,24.7-13.4,34.5c-8.9,9.8-19.4,14.7-31.4,14.7
			c-9.2,0-16.6-2.9-22.4-8.8c-5.8-5.9-8.6-13.5-8.6-22.8c0-10.6,3.7-19.8,11.2-27.6s16.2-11.7,26.4-11.7c1.5,0,3.2,0.2,4.9,0.6
			c-1.1-2.1-1.7-3.8-1.7-5.2c0-2.2,0.8-4.3,2.3-6.3c11.1,0.9,20.4,6.6,27.8,17.1c7.6,5.2,15.4,7.7,23.7,7.7c5.3,0,11.1-1.8,17.3-5.4
			l3.4,5.8c-7.2,5.1-14.7,7.6-22.3,7.6C878.1,1086,872.4,1085,866,1082.9z M850.5,1077.1c-3.8-1.1-7.3-3-10.5-5.5
			c-2.3-0.5-4.3-0.7-5.8-0.8c-7.7,0-14.6,3.5-20.6,10.5c-6,7-9,14.9-9,23.9c0,6.5,1.8,11.8,5.4,16s8.3,6.3,14,6.3
			c7.7,0,14.3-3.9,19.9-11.7c5.6-7.8,8.3-17,8.3-27.8C852.2,1084.2,851.6,1080.6,850.5,1077.1z"/>
		<path class="st4" d="M903.2,1132.8c-3.1,1.5-5.6,2.2-7.5,2.2c-4.7,0-7-2.1-7-6.2c0-2.1,0.8-7.3,2.5-15.7l3.4-17
			c2.1-10.1,3.1-17.6,3.1-22.5c0-2.6-0.8-4.9-2.3-6.6c4.8-1.6,8.7-2.5,11.7-2.5c3.2,0,4.8,2,4.8,6.1c0,2.5-1.1,9.1-3.4,19.8
			l-3.9,19.9c8.6-16.7,17.3-29.7,26-39c8.7-9.3,16.6-13.9,23.7-13.9c2.5,0,4.7,0.7,6.5,2.2s2.7,3.2,2.7,5.2c0,3.2-3.5,7.4-10.4,12.7
			c-1.7-3.6-4.2-5.4-7.4-5.4c-5.8,0-13.2,6.2-22.1,18.5c-5.6,7.7-10.4,15.6-14.5,23.7s-6.1,13.9-6.1,17.4L903.2,1132.8z"/>
		<path class="st4" d="M1020.9,1091.5c-5.8,12.1-13,22.3-21.6,30.8c-8.6,8.5-16,12.7-22.3,12.7c-4.8,0-8.7-2.2-11.6-6.5
			c-2.9-4.3-4.3-10-4.3-17.2c0-14.3,4.3-26.8,13-37.7c8.6-10.8,18.6-16.3,30-16.3c6.9,0,14.3,2.1,22.4,6.4c1.2-4.2,6-6.4,14.5-6.4
			c0.5,0,1.4,0,2.7,0.1c-2.6,4-4.6,9.4-5.9,16.3l-1.2,5.8c-1.3,6.5-2,14-2,22.7c0,10,2.3,15,7,15c4.9,0,11.7-4.1,20.2-12.3
			c8.5-8.2,16.9-18.7,25.2-31.4l5.3,3.7c-8.4,15-18.1,27.6-28.9,37.6c-10.8,10-20.2,15.1-28,15.1c-9.8,0-14.8-8.2-14.8-24.6
			C1020.5,1101.9,1020.7,1097.3,1020.9,1091.5z M1024.2,1075.2c-9.6-6.2-17.5-9.4-23.9-9.4c-6.9,0-12.8,4.2-17.9,12.5
			c-5,8.4-7.5,18.3-7.5,29.8c0,9.2,3,13.8,9,13.8c6.5,0,19-14.3,37.4-42.9C1021.6,1078.6,1022.5,1077.4,1024.2,1075.2z"/>
	</g>
</g>
</svg>
